<?xml version="1.0" encoding="utf-8"?>
<!-- Generator: Adobe Illustrator 16.0.0, SVG Export Plug-In . SVG Version: 6.00 Build 0)  -->
<!DOCTYPE svg PUBLIC "-//W3C//DTD SVG 1.1//EN" "http://www.w3.org/Graphics/SVG/1.1/DTD/svg11.dtd">
<svg version="1.1" xmlns="http://www.w3.org/2000/svg" xmlns:xlink="http://www.w3.org/1999/xlink" x="0px" y="0px"
	 width="2268.015px" height="546.054px" viewBox="0 0 2268.015 546.054" enable-background="new 0 0 2268.015 546.054"
	 xml:space="preserve">
<g id="Layer_1">
	<g>
		<path fill="#FFFFFF" d="M-264.808-1175.601c1004.878,0,2009.757,0,3014.636,0c0,850.282,0,1700.562,0,2550.845
			c-1004.878,0-2009.756,0-3014.636,0.001 M1833.436-681.877c-3.993,0.214-9.852,0.763-15.712,0.792
			c-12.382,0.064-24.771,0.024-37.143-0.371c-2.583-0.083-5.729-1.243-7.558-3.005c-8.639-8.327-18.224-16.118-19.948-29.244
			c-0.417-3.175-2.082-5.224-6.314-4.126c-1.977,4.432-0.626,9.13-0.108,13.784c1.345,12.116,1.443,24.214-1.771,36.057
			c-3.23,11.897-6.531,23.801-10.479,35.472c-3.768,11.135-8.247,22.038-12.701,32.927c-7.073,17.291-18.901,31.773-28.605,47.504
			c-5.149,8.347-11.064,16.22-16.593,24.334c-4.094,6.008-8.009,12.142-12.229,18.059c-2.112,2.961-4.623,5.664-7.139,8.307
			c-13.868,14.568-26.595,29.922-45.502,39.308c-16.644,8.26-32.44,17.456-51.216,20.527c-11.62,1.901-22.982,0.21-34.456,0.333
			c-1.343,0.015-2.914-0.419-4.004-1.182c-5.215-3.65-10.845-6.936-15.312-11.374c-8.001-7.953-13.942-17.199-17.226-28.404
			c-3.459-11.806-2.669-21.376,6.533-30.632c8.004-8.051,14.641-17.531,21.369-26.754c3.589-4.92,5.953-10.717,9.134-15.958
			c2.164-3.565,5.125-6.666,7.142-10.3c6.24-11.252,12.837-22.374,18.092-34.086c5.486-12.225,11.079-24.545,12.801-38.155
			c0.665-5.263,2.256-10.428,3.674-15.57c2.266-8.209,3.308-16.413,2.932-25.031c-0.299-6.858-4.484-12.071-5.673-18.303
			c-1.142-5.985-3.488-10.456-9.152-13.183c-2.489-1.199-4.523-3.332-6.796-4.998c-5.186-3.805-10.744-4.567-16.71-2.005
			c-1.54,0.661-3.17,1.831-4.681,1.718c-5.453-0.406-8.092,2.773-10.415,6.964c-1.481,2.673-3.683,4.939-5.263,7.567
			c-7.058,11.738-14.403,23.384-18.863,36.417c-6.157,17.99-11.402,36.301-17.853,54.181c-8.81,24.417-10.632,50.044-13.77,75.399
			c-1.339,10.818-0.217,21.966,0.099,32.955c0.27,9.427-4.291,17.849-13.308,20.889c-5.905,1.99-10.154,5.834-14.262,9.783
			c-12.554,12.066-24.423,24.85-37.072,36.811c-14.043,13.279-28.64,25.972-43.02,38.893c-12.281,11.034-24.451,22.197-36.933,33
			c-17.062,14.769-36.488,25.929-56.755,35.589c-14.704,7.009-29.604,13.635-44.594,20.012
			c-14.483,6.16-29.472,10.941-44.961,13.874c-7.251,1.373-7.271,1.053-9.313-5.875c-0.464-1.575-1.35-3.022-1.959-4.56
			c-2.461-6.206-6.293-12.253-7.079-18.67c-2.914-23.795-3.956-47.72-1.276-71.668c1.309-11.705,2.42-23.374,5.201-34.922
			c2.814-11.684,4.072-23.739,6.139-35.609c0.326-1.875,0.936-3.934,2.073-5.397c5.996-7.715,11.897-15.54,18.417-22.801
			c7.459-8.309,15.736-15.878,23.289-24.109c9.679-10.548,18.959-21.463,28.471-32.167c4.442-5,8.821-9.837,12.115-15.909
			c8.817-16.25,20.597-30.664,29.142-47.224c6.909-13.392,14.886-26.269,21.044-40.067c5.021-11.252,9.874-22.596,14.316-34.086
			c2.926-7.57,4.598-15.626,7.525-23.195c5.745-14.854,12.469-29.342,17.877-44.309c6.328-17.514,10.417-35.582,8.762-55.229
			c4.878-0.062,4.838-3.834,4.312-7.2c-0.552-3.528-1.933-6.944-3.11-10.354c-2.148-6.23-8.768-8.269-12.412-13.049
			c-2.375-3.114-5.38-4.387-8.832-3.626c-7.105,1.567-14.429,2.863-21.076,5.663c-19.716,8.304-33.701,24.205-47.458,39.509
			c-11.67,12.98-22.977,26.621-31.684,42.105c-5.072,9.021-11.973,17.026-16.915,26.107c-9.089,16.692-18.839,32.993-26.603,50.478
			c-7.766,17.493-14.012,35.453-19.472,53.641c-5.161,17.197-7.91,35.103-12.575,52.467c-6.363,23.683-10.894,47.678-14.229,71.93
			c-0.575,4.182-0.093,8.604-1.224,12.596c-3.636,12.841-5.174,25.888-5.518,39.177c-0.058,2.19-1.449,4.791-3.033,6.408
			c-3.724,3.802-7.705,7.442-12.001,10.573c-9.054,6.599-18.342,12.878-27.598,19.196c-12.705,8.672-25.06,17.957-38.304,25.717
			c-19.592,11.479-39.859,21.803-59.782,32.72c-6.653,3.645-12.994,8.004-20.428,6.977c-2.517,2.694-4.26,5.244-6.618,6.934
			c-3.863,2.767-8.027,5.16-12.236,7.385c-13.632,7.206-27.448,13.889-42.138,18.904c-9.477,3.235-18.842,5.608-28.81,5.496
			c-6.455-0.073-6.823-0.749-8.169-6.97c-1.122-5.187-1.975-10.848-4.736-15.151c-3.076-4.792-4.118-9.664-4.894-14.95
			c-0.877-5.975-0.109-12.414-4.9-17.382c-0.83-0.859-0.942-2.673-0.93-4.041c0.114-11.815-0.131-23.661,0.635-35.438
			c1.006-15.453,3.502-30.824,4.139-46.281c0.777-18.853,3.266-37.486,5.35-56.182c0.654-5.87,1.568-11.712,2.364-17.567
			c1.435-10.563,2.853-21.128,4.311-31.688c0.769-5.561,1.366-11.161,2.468-16.659c2.314-11.562,5.475-22.981,7.28-34.615
			c4.398-28.35,9.316-56.577,16.919-84.265c5.889-21.444,12.62-42.5,25.365-61.201c6.767-9.927,12.566-20.529,18.454-31.022
			c1.229-2.192,1.292-5.256,1.224-7.9c-0.071-2.768-0.779-5.562-1.515-8.261c-0.955-3.513-2.016-7.024-3.401-10.384
			c-1.036-2.51-3.439-3.321-5.539-1.574c-4.689,3.903-9.451,7.836-13.484,12.378c-3.497,3.938-6.015,8.742-8.996,13.144
			c-6.93,10.232-13.459,20.657-17.129,32.619c-0.762,2.483-2.215,4.755-4.018,8.521c-1.344-2.903-2.023-4.073-2.445-5.329
			c-3.381-10.071-6.068-20.434-10.225-30.17c-4.993-11.697-12.02-22.171-23.215-29.221c-8.787-5.532-17.189-11.69-26.102-17
			c-7.043-4.195-14.947-7.181-23.234-5.35c-21.184,4.68-41.746,11.288-60.238,23.033c-3.975,2.523-7.867,5.539-10.918,9.083
			c-7.111,8.264-13.663,17.008-20.49,25.52c-5.07,6.323-10.186,12.61-15.359,18.847c-0.809,0.975-1.936,1.835-3.093,2.347
			c-5.36,2.367-11.12,4.021-16.121,6.973c-16.679,9.845-33.054,20.202-49.621,30.239c-12.899,7.814-25.414,16.495-38.991,22.901
			c-18.199,8.586-37.024,15.953-56.582,21.204c-6.389,1.716-12.543,2.903-18.443-0.084c-2.31,3.514-4.353,6.623-5.935,9.031
			c0.297,4.261,1.505,8.116,0.612,11.4c-2.352,8.65-5.325,17.167-8.607,25.518c-2.768,7.041-5.999,13.946-9.586,20.61
			c-8.376,15.566-16.117,31.604-25.936,46.229c-10.109,15.059-22.14,28.866-33.76,42.863
			c-15.385,18.536-34.493,32.833-53.998,46.732c-9.719,6.927-20.738,11.015-31.141,16.417c-11.082,5.753-22.736,9.321-35.642,6.9
			c-11.571-2.17-21.8-6.927-30.885-14.235c-1.427-1.148-2.779-3.018-3.134-4.764c-1.57-7.721-3.564-15.479-3.941-23.296
			c-1.156-24.002,1.941-47.711,6.485-71.233c4.192-21.709,13.702-41.568,21.998-61.823c6.369-15.551,12.874-31.065,19.985-46.286
			c7.199-15.409,14.895-30.61,23.003-45.562c4.624-8.526,10.384-16.453,15.846-24.506c8.445-12.45,10.185-26.672,10.593-41.064
			c0.174-6.122-1.536-12.299-7.369-16.721c-1.609,0.2-3.736,0.007-5.441,0.763c-5.053,2.237-10.059,4.64-14.867,7.357
			c-10.253,5.794-20.14,12.275-30.594,17.667c-20.833,10.746-39.518,24.487-57.594,39.249
			c-13.051,10.657-26.294,21.104-39.826,31.14c-9.646,7.153-20.133,13.169-29.869,20.212
			c-29.555,21.378-57.958,44.244-86.207,67.309c-6.256,5.108-13.01,9.613-19.594,14.312c-10.51,7.497-21.082,14.906-31.598,22.394
			c-2.661,1.896-2.381,4.392-0.553,6.541c2.514,2.958,5.207,2.218,8.125,0.107c9.757-7.061,19.93-13.573,29.42-20.97
			c18.352-14.308,36.289-29.146,54.514-43.619c8.958-7.115,18.076-14.04,27.297-20.812c16.002-11.753,32.071-23.418,48.268-34.903
			c4.766-3.38,10.545-5.433,14.996-9.133c7.938-6.597,15.684-13.318,24.148-19.333c15.965-11.342,30.983-24.017,46.98-35.309
			c8.887-6.271,18.956-10.864,28.488-16.22c3.784-2.127,7.559-4.271,12.671-7.162c-0.448,3.192-0.26,4.953-0.953,6.239
			c-2.914,5.398-6.228,10.581-9.151,15.974c-12.31,22.708-24.57,45.442-36.765,68.213c-3.818,7.128-7.804,14.216-10.937,21.65
			c-3.811,9.045-7.326,18.285-10.033,27.709c-4.969,17.29-9.379,34.745-13.734,52.204c-1.15,4.614-1.045,9.527-1.867,14.241
			c-4.791,27.458-9.522,54.942-4.318,82.872c1.483,7.966,3.529,15.919,6.271,23.534c2.639,7.324,7.576,12.736,15.774,14.972
			c5.604,1.528,10.915,4.31,16.175,6.9c13.452,6.625,27.625,8.058,41.938,4.651c15.905-3.786,30.583-10.919,44.055-20.163
			c9.715-6.666,19.275-13.653,28.257-21.262c9.587-8.121,19.059-16.562,27.408-25.912c10.954-12.267,20.836-25.501,31.024-38.44
			c4.085-5.187,7.808-10.662,11.61-16.065c2.892-4.108,5.795-8.221,8.434-12.492c4.1-6.633,8.414-13.188,11.823-20.174
			c3.299-6.761,4.813-14.445,8.454-20.974c6.947-12.457,10.051-25.983,12.959-39.646c0.773-3.632,2.139-5.856,6.262-6.738
			c9.043-1.938,17.99-4.389,26.871-6.992c5.626-1.65,11.113-3.821,16.57-5.992c9.086-3.614,18.107-7.388,27.127-11.165
			c1.545-0.646,2.994-1.563,4.399-2.488c5.845-3.843,11.586-7.847,17.494-11.588c12.562-7.957,25.134-15.909,37.839-23.633
			c10.889-6.62,21.971-12.92,34.753-20.408c-1.058,3.885-1.382,5.713-2.046,7.408c-4.174,10.655-9.116,21.066-12.496,31.962
			c-6.161,19.866-11.438,40.007-17.023,60.052c-1.584,5.688-3.293,11.372-4.365,17.165c-2.354,12.704-4.274,25.488-6.48,38.22
			c-4.578,26.43-6.985,52.965-3.646,79.735c0.938,7.527,1.871,15.152,3.957,22.401c1.162,4.038,3.889,8.785,7.322,10.773
			c7.594,4.398,14.982,9.242,23.811,11.674c12.791,3.524,24.982,1.356,37.238-1.521c4.558-1.07,8.734-3.668,13.24-5.067
			c6.594-2.048,28.594-13.004,34.225-17.18c6.453-4.785,13.271-9.09,19.578-14.053c7.688-6.05,15.339-12.22,22.406-18.965
			c10.12-9.66,19.674-19.912,29.535-29.848c1.486-1.498,3.322-2.648,5.741-4.543c0.562,2.169,1.318,3.479,1.122,4.624
			c-0.759,4.423-1.675,8.832-2.832,13.166c-0.561,2.101-1.252,4.885-2.816,5.853c-3.664,2.266-3.576,5.275-3.332,8.753
			c0.156,2.233,0.047,4.51-0.186,6.742c-1.812,17.361-3.787,34.707-5.494,52.079c-1.045,10.64-2.291,21.313-2.385,31.98
			c-0.112,12.619,0.646,25.267,1.558,37.863c0.565,7.809,1.823,15.604,3.327,23.296c1.066,5.449,3.102,10.706,4.625,16.071
			c0.459,1.615,0.418,3.394,1.001,4.95c5.015,13.368,9.931,26.778,15.288,40.009c2.226,5.498,5.328,10.946,12.398,11.138
			c12.636,0.343,25.01-2.001,37.356-4.31c16.815-3.144,31.148-12.291,46.146-19.682c11.037-5.44,21.348-12.335,32.181-18.214
			c15.009-8.145,30.196-15.959,45.323-23.887c6.936-3.636,13.96-7.108,20.842-10.843c3.444-1.87,6.78-3.996,9.956-6.294
			c12.445-9.004,24.804-18.127,37.208-27.189c1.126-0.823,2.258-1.732,3.53-2.246c9.282-3.749,16.849-9.898,24.058-16.657
			c1.887-1.769,4.457-2.809,8.358-5.185c-1.261,9.434-1.896,16.96-3.32,24.334c-4.465,23.119-6.714,46.141-0.746,69.426
			c3.993,15.58,8.282,30.792,17.938,44.149c8.813,12.19,21.095,18.218,35.547,14.558c8.295-2.1,16.227-5.795,24.144-9.189
			c8.945-3.835,17.632-8.271,26.554-12.166c3.242-1.416,7.103-1.503,10.221-3.098c8.9-4.553,17.639-9.439,26.305-14.432
			c12.607-7.263,24.967-14.964,37.699-21.996c4.813-2.66,9.359-8.523,17.386-1.616c-2.776-7.806,1.155-10.723,4.763-13.809
			c6.351-5.432,12.741-10.816,19.035-16.312c5.065-4.424,9.986-9.012,15.018-13.475c4.377-3.881,8.83-7.675,13.229-11.531
			c7.744-6.79,15.395-13.688,23.224-20.376c10.834-9.255,22.437-17.72,32.477-27.757c6.364-6.362,12.068-13.565,18.575-19.876
			c5.756-5.583,12.127-10.532,18.488-15.985c1.174,1.587,2.078,2.365,2.414,3.338c2.104,6.08,4.011,12.226,6.118,18.304
			c1.589,4.583,3.997,8.476,8.402,11.14c3.066,1.854,5.376,4.947,8.422,6.848c4.246,2.65,8.642,5.485,13.374,6.83
			c7.264,2.065,14.863,2.961,22.335,4.271c1.05,0.184,2.371,0.247,3.245-0.228c5.583-3.034,11.652-2.716,17.365-1.587
			c6.083,1.201,11.673-0.148,17.428-1.124c2.753-0.466,5.609-2.006,8.147-1.549c2.202,0.397,4.021,2.924,6.974,5.278
			c-0.515-6.796,3.645-8.163,8.087-9.364c2.7-0.73,5.527-1.382,7.941-2.715c10.557-5.828,20.974-11.911,31.463-17.863
			c3.626-2.058,7.673-3.548,10.909-6.086c11.704-9.179,21.682-20.035,29.997-32.403c0.929-1.381,2.216-2.54,3.42-3.716
			c6.268-6.125,11.15-13.203,15.256-20.946c2.874-5.42,6.375-10.52,9.767-15.649c1.853-2.802,4.361-5.191,6.06-8.069
			c7.698-13.046,15.629-25.983,22.655-39.39c4.886-9.326,7.855-19.658,12.784-28.957c3.539-6.677,3.948-14.033,6.644-20.767
			c6.767-16.895,12.635-34.016,14.443-54.133c3.19,3.272,5.589,5.375,7.558,7.823c4.935,6.138,11.264,8.763,19.072,9.116
			c12.634,0.573,25.179,0.738,37.873,0.31c19.771-0.665,38.135-6.554,56.815-11.325c14.615-3.733,28.658-9.678,43.246-13.543
			c8.879-2.352,16.915-5.819,24.555-10.693c1.354-0.865,3.385-0.67,5.818-1.088c-0.803,3.211-1.161,5.438-1.914,7.523
			c-3.799,10.521-7.473,21.096-11.619,31.48c-5.618,14.072-11.712,27.952-17.429,41.985c-3.144,7.715-6.494,15.417-8.747,23.407
			c-2.966,10.521-4.273,21.528-7.533,31.939c-3.345,10.682-3.963,21.508-4.322,32.444c-0.328,9.989,1.292,20.136,6.469,28.38
			c8.508,13.549,21.651,20.31,37.972,17.877c11.878-1.77,23.566-4.817,35.331-7.335c0.809-0.174,1.609-0.578,2.309-1.037
			c11.414-7.508,25.216-9.065,37.252-14.973c5.198-2.551,10.199-5.535,15.157-8.541c7.36-4.459,14.511-9.271,21.921-13.642
			c8.146-4.805,16.852-8.74,24.658-14.021c14.126-9.555,27.703-19.917,41.626-29.776c15.564-11.022,30.001-23.371,44.035-36.256
			c6.249-5.737,13.148-10.765,19.752-16.114c0.483,0.345,0.967,0.689,1.45,1.034c-3.201,9.497-6.421,18.986-9.598,28.49
			c-2.31,6.909-4.699,13.796-6.81,20.767c-2.925,9.656-5.651,19.374-8.409,29.081c-2.594,9.133-5.883,18.152-7.506,27.458
			c-2.848,16.326-5.496,32.754-3.884,49.498c0.319,3.314-0.774,6.744-0.672,10.104c0.388,12.679,2.736,24.453,15.521,31.009
			c1.424,0.73,2.725,1.904,3.77,3.137c4.344,5.126,9.896,8.018,16.339,9.628c8.164,2.042,16.024,4.522,24.784,1.876
			c7.16-2.162,14.834-3.707,22.268-3.655c16.79,0.117,32.692-3.921,48.629-8.256c4.061-1.104,8.383-1.588,12.174-3.276
			c10.221-4.552,20.549-9.027,30.237-14.574c17.513-10.029,34.616-20.774,51.822-31.333c2.437-1.495,4.483-3.627,6.95-5.663
			c0.869,1.438,1.58,2.091,1.649,2.807c1.311,13.631,6.417,26.175,11.058,38.849c2.418,6.601,6.96,11.667,12.869,15.109
			c4.681,2.726,9.774,6.324,15.518,1.621c0.477-0.391,1.698-0.136,2.464,0.133c9.796,3.434,20.64,2.215,30.186,6.876
			c1.966,0.959,4.358,1.074,6.568,1.497c10.778,2.062,21.565,4.077,32.343,6.146c7.178,1.377,14.289,3.277,21.527,4.121
			c10.805,1.259,21.336,0.315,30.622-6.433c1.736-1.262,4.074-1.728,6.17-2.458c5.936-2.066,11.89-4.08,18.18-6.231
			c-2.436-5.337-6.028-3.344-8.552-2.933c-17.857,2.905-35.78,3.929-53.777,2.107c-6.677-0.677-13.242-3.229-19.883-3.336
			c-22.083-0.353-42.695-7.404-63.304-13.831c-9.96-3.106-18.187-10.321-18.742-22.45c-0.49-10.683-0.798-21.378-0.987-32.071
			c-0.072-4.077,1.449-7.658,4.558-10.534c3.706-3.431,7.438-6.861,10.853-10.573c7.742-8.416,15.283-17.015,22.935-25.514
			c2.623-2.914,5.759-5.463,7.923-8.676c7.811-11.594,15.335-23.38,22.912-35.129c8.496-13.173,10.898-28.033,11.321-43.271
			c0.114-4.09-2.009-8.196-2.294-12.351c-0.62-9.02-5.836-14.228-13.442-17.823c-2.022-0.956-4.108-1.885-5.909-3.182
			c-3.941-2.843-7.951-2.468-11.971-0.533c-7.165,3.449-13.604,7.907-18.325,14.448c-5.907,8.184-12.674,15.93-17.372,24.768
			c-11.036,20.762-23.18,41.28-24.418,65.75c-0.071,1.395-0.476,2.769-0.693,4.158c-2.611,16.681-5.391,33.339-7.7,50.062
			c-0.564,4.083-2.112,6.552-5.538,8.692c-7.363,4.599-14.438,9.662-21.664,14.481c-12.363,8.243-24.497,16.869-38.3,22.698
			c-6.988,2.951-14.097,5.696-20.837,9.146c-17.339,8.874-36.197,11.862-55.088,14.728c-7.229,1.097-14.654,1.028-21.816,2.396
			c-13.338,2.545-26.326,2.025-38.932-3.035c-4.461-1.79-8.664-4.295-8.341-10.361c0.462-8.682-0.091-17.495,1.196-26.039
			c2.758-18.317,6.357-36.51,9.768-54.724c0.511-2.724,1.893-5.279,2.796-7.938c0.902-2.655,1.797-5.319,2.539-8.021
			c2.205-8.027,3.856-16.241,6.599-24.077c4.712-13.469,9.935-26.766,15.229-40.021c4.164-10.427,8.016-21.092,13.406-30.88
			c4.08-7.408,7.624-14.845,10.177-22.85c1.098-3.441,2.285-6.892,3.841-10.141c2.965-6.192,2.409-9.198-2.791-14.012
			c-2.43-2.249-5.243-4.448-6.732-7.276c-3.34-6.342-8.764-7.862-14.903-8.541c-2.821,7.938-4.988,15.543-8.202,22.677
			c-3.542,7.867-6.6,16.708-12.402,22.653c-16.025,16.421-32.707,32.356-50.381,46.968c-17.684,14.619-37.026,27.212-55.375,41.047
			c-20.312,15.313-43.565,25.577-65.366,38.301c-12.171,7.104-26.183,11.156-39.556,16.063c-10.785,3.958-21.695,7.844-32.86,10.403
			c-7.262,1.665-15.085,1.167-22.651,1.086c-3.488-0.037-7.098-2.007-7.032-5.984c0.115-6.995,0.31-14.162,1.892-20.925
			c4.988-21.324,10.625-42.497,16.033-63.722c1.459-5.724,2.906-11.453,4.53-17.13c1.681-5.878,3.284-11.805,5.426-17.52
			c6.103-16.281,12.472-32.461,18.704-48.694c0.501-1.306,0.789-2.698,1.127-4.062c2.694-10.857,5.156-21.781,8.205-32.539
			c0.862-3.045,3.026-7.547,5.285-8.011c5.56-1.141,9.258-4.933,13.887-7.281c5.492-2.786,11.548-4.956,16.213-8.788
			c14.723-12.098,29.02-24.669,34.133-44.377c2.118-8.167-3.812-21.358-12.031-23.109c-5.88-1.252-12.23-1.527-18.212-0.846
			c-16.736,1.906-27.213,13.075-35.579,26.357c-4.307,6.837-7.678,14.317-10.964,21.732c-5.104,11.518-9.674,23.272-14.724,34.815
			c-0.904,2.068-2.691,4.28-4.653,5.262c-7.19,3.599-14.441,7.238-22.013,9.879c-12.446,4.342-25.098,8.14-37.78,11.752
			c-12.693,3.615-25.521,6.762-38.313,10.026c-4.014,1.025-8.102,1.765-11.339,2.46 M685.861,98.161
			c-3.476,1.929-5.242,4.105-5.709,7.981c-0.49,4.088-2.008,8.085-3.354,12.029c-0.99,2.904-2.652,5.582-3.619,8.492
			c-3.217,9.676-7.424,18.751-13.793,26.858c-3.265,4.156-7.1,8.75-8.005,13.641c-1.062,5.734-3.565,9.856-7.226,13.808
			c-6.285,6.79-12.189,13.984-18.914,20.308c-12.023,11.305-24.355,22.299-36.914,33.006c-7.449,6.354-15.359,12.231-23.447,17.76
			c-17.626,12.049-35.751,23.379-53.181,35.697c-11.868,8.387-22.88,17.984-34.322,26.98c-8.364,6.577-16.784,13.086-25.223,19.569
			c-3.551,2.728-7.456,5.037-10.786,8.002c-19.824,17.647-42.027,31.907-64.898,45.09c-14.555,8.389-29.699,15.769-44.703,23.354
			c-6.996,3.537-14.105,6.995-21.477,9.61c-18.605,6.602-38.014,7.456-57.531,6.893c-7.354-0.212-13.039-2.773-14.721-10.839
			c-0.341-1.63-1-3.281-1.876-4.698c-6.579-10.632-7.99-22.521-9.008-34.624c-0.427-5.092,2.091-8.296,5.668-10.37
			c15.76-9.134,26.056-23.664,36.515-37.675c7.818-10.475,13.446-22.598,19.923-34.059c5.229-9.255,5.132-19.423,4.44-29.58
			c-0.123-1.812-1.238-3.742-2.37-5.268c-6.567-8.851-19.312-11.596-29.162-6.464c-1.24,0.646-2.586,1.567-3.877,1.559
			c-5.428-0.038-8.72,3.309-12.841,6.273c-14.616,10.517-23.131,25.48-29.426,41.271c-8.412,21.097-14.731,43.051-15.64,66.102
			c-0.077,1.945-0.7,3.892-0.616,5.817c0.159,3.604-1.433,5.84-4.617,7.245c-13.076,5.771-25.938,12.087-39.248,17.247
			c-18.594,7.208-37.457,13.74-56.328,20.205c-9.029,3.094-18.359,5.3-27.518,8.03c-10.201,3.042-20.371,6.197-30.537,9.36
			c-3.448,1.072-5.037,3.269-3.701,7.595c2.768,0,5.627,0.515,8.215-0.105c5.694-1.364,11.187-3.565,16.875-4.959
			c24.047-5.891,47.722-12.907,70.644-22.354c19.48-8.029,39.011-15.938,58.524-23.885c2.192-0.892,4.427-1.68,6.153-2.332
			c3.276,6.853,5.739,13.104,9.119,18.814c5.476,9.25,13.279,16.22,21.977,22.677c7.893,5.861,16.866,8.701,25.669,9.166
			c23.765,1.256,47.081-2.643,69.496-11.019c3.68-1.375,7.365-2.837,10.834-4.664c9.934-5.229,19.776-10.631,29.619-16.032
			c10.952-6.01,23.408-9.629,31.701-19.908c0.67-0.829,1.808-1.288,2.742-1.897c8.79-5.728,17.834-11.104,26.308-17.267
			c9.054-6.585,17.562-13.918,26.321-20.909c15.513-12.384,31.007-24.792,46.566-37.119c7.887-6.248,15.803-12.468,23.871-18.476
			c18.662-13.897,38.972-25.384,57.279-39.882c14.013-11.1,27.41-22.831,40.666-34.765c3.738-3.365,6.746-7.604,10.693-10.662
			c10.33-8.009,19.359-17.098,26.301-28.235c1.582-2.538,3.38-6.25,5.682-6.774c5.781-1.318,7.137-5.704,9.252-9.9
			c1.201-2.383,2.662-4.635,4.006-6.945c2.293,18.632-2.051,36.446-3.4,54.48c-1.38,18.444-3.107,36.863-4.652,54.947
			c-2.198,0.868-3.246,1.23-4.25,1.688c-17.01,7.746-34.565,14.106-49.866,25.567c-25.179,18.86-30.817,51.881-15.277,77.377
			c10.733,17.609,27.812,25.231,47.759,27.013c3.291,0.295,6.717-1.123,10.041-0.963c4.817,0.231,7.936-2.101,10.815-5.433
			c5.131-5.936,8.171-12.964,9.12-20.537c1.632-13.021,8.898-24.669,8.864-38.034c-0.001-0.809,0.533-1.604,0.699-2.428
			c1.366-6.79,2.94-13.549,3.999-20.389c1.963-12.685,3.621-25.418,5.407-38.149c1.469-0.4,2.521-0.876,3.602-0.952
			c12.921-0.901,25.856-1.605,38.765-2.642c11.231-0.903,22.488-1.779,33.637-3.358c15.299-2.167,30.469-5.24,45.766-7.425
			c8.348-1.192,16.908-0.883,25.258-2.069c21.187-3.011,42.098-7.364,62.604-13.658c7.769-2.386,15.867-3.7,24.668-5.696
			c-2.99,14.036-5.875,27.113-8.537,40.236c-1.615,7.964-3.21,15.957-4.239,24.011c-1.739,13.608-8.721,26.157-7.97,40.247
			c0.059,1.094-0.254,2.254-0.598,3.317c-1.973,6.125-4.346,12.144-5.947,18.362c-3.226,12.521-6.58,25.053-8.822,37.767
			c-1.302,7.379-0.715,15.122-0.645,22.699c0.03,3.306,1.429,6.315,5.561,5.846c3.857-0.439,7.771-1.022,11.445-2.208
			c2.158-0.695,4.768-2.287,5.643-4.184c1.734-3.76,2.543-7.978,3.492-12.062c2.016-8.687,3.636-17.472,5.889-26.094
			c1.404-5.378,4.217-10.408,5.438-15.812c3.709-16.401,7.679-32.802,10.149-49.409c2.062-13.877,4.73-27.595,7.407-41.339
			c1.14-5.853-0.37-12.455,5.303-16.954c0.671-0.531,0.352-2.173,0.773-3.184c0.928-2.218,1.525-4.912,3.166-6.429
			c4.677-4.323,9.426-8.796,14.854-12.019c7.368-4.377,15.675-7.172,23.047-11.543c6.058-3.592,12.022-4.273,18.821-2.843
			c1.341,2.279,3.51,4.518,4.029,7.09c2.752,13.619,4.357,27.266-1.625,40.602c-2.98,6.644-5.338,13.589-8.64,20.059
			c-4.762,9.328-10.054,18.335-21.427,21.225c-7.474,1.899-14.844,4.206-23.03,6.551c1.204,2.733,1.599,5.209,3.044,6.567
			c2.641,2.484,3.051,5.224,2.516,8.422c-1.713,10.234,0.274,20.174,2.418,30.089c1.599,7.396,3.116,14.819,5.059,22.127
			c2.015,7.583,4.211,15.147,6.928,22.497c0.993,2.688,3.312,5.334,5.728,6.951c4.562,3.054,9.58,5.452,14.502,7.937
			c10.562,5.333,21.515,10.087,33.323,11.134c13.983,1.241,28.088,1.099,42.137,1.639c4.498,0.173,8.985,0.86,13.478,0.86
			c5.008,0.001,10.02-0.453,15.021-0.825c3.262-0.243,6.582-1.3,9.748-0.918c6.016,0.725,11.607,0.601,17.306-2.03
			c4.026-1.858,8.595-2.736,13.016-3.517c15.211-2.686,30.428-5.186,44.281-12.685c2.668-1.445,5.867-1.901,8.815-2.832
			c8.559-2.702,17.226-5.116,25.615-8.267c3.492-1.312,6.18-4.65,9.611-6.263c4.104-1.929,5.694-8.312,12.211-6.583
			c0.398,1.125,1.133,2.387,1.266,3.71c0.967,9.577,5.229,17.877,10.856,25.274c5.549,7.293,11.272,15.489,21.003,17.111
			c12.555,2.093,25.338,5.62,38.068,0.246c2.053-0.867,4.32-1.337,6.537-1.682c10.632-1.652,18.754-8.098,27.139-14.05
			c6.825-4.844,13.108-10.805,20.545-14.363c16.959-8.117,29.712-21.675,44.614-32.411c8.591-6.19,17.53-11.896,26.147-18.05
			c11.552-8.252,25.965-11.141,36.991-20.653c6.061-5.228,13.835-8.502,20.938-12.478c6.229-3.484,10.034-2.059,13.554,4.328
			c3.361,6.099,4.907,12.473,3.586,19.35c-2.598,13.524-5.374,27.015-7.974,40.539c-4.864,25.304-14.743,48.905-25.457,72.071
			c-6.569,14.201-15.04,27.538-22.896,41.124c-3.137,5.426-5.092,10.621-1.721,16.638c1.365,2.438,2.484,5.044,3.441,7.673
			c1.512,4.149,4.854,5.247,8.677,5.374c2.485,0.082,4.986-0.34,7.998-0.575c5.944-10.104,11.876-20.242,17.883-30.334
			c0.843-1.416,1.928-2.742,3.111-3.894c13.021-12.665,26.112-25.258,39.124-37.932c7.24-7.053,14.158-14.45,21.607-21.271
			c6.155-5.636,13.095-10.41,19.304-15.992c14.381-12.928,28.446-26.204,42.798-39.165c11.59-10.468,23.218-20.832,33.64-32.555
			c5.589-6.289,11.536-12.91,21.208-14.353c0,1.769,0.286,3.199-0.046,4.469c-2.832,10.846-5.763,21.665-8.693,32.485
			c-2.929,10.815-5.903,21.617-8.833,32.432c-0.876,3.229-1.804,6.455-2.472,9.73c-1.561,7.656-4.357,15.276-0.285,23.072
			c5.022,9.616,16.086,15.276,27.078,14.477c6.081-0.443,12.296,0.002,18.374,0.706c7.511,0.87,15.232,0.562,21.396-3.153
			c10.697-6.448,23.05-9.79,32.453-18.884c5.7-5.512,13.546-8.809,20.442-13.078c3.749-2.322,7.775-4.281,11.241-6.966
			c6.199-4.8,11.854-10.313,18.124-15.01c10.483-7.851,18.925-18.406,31.503-23.534c2.47-1.007,4.336-3.495,6.48-5.299
			c3.434-2.889,6.758-5.924,10.335-8.625c3.743-2.826,8.019-4.995,11.56-8.037c14.051-12.068,27.854-24.426,41.851-36.559
			c10.79-9.352,22.173-18.05,31.41-29.08c1.688-2.016,3.51-3.922,5.563-6.205c7.454,15.084,16.422,92.405,13.222,111.023
			c-8.896,4.232-18.019,8.364-26.927,12.916c-3.451,1.765-6.929,4.018-9.51,6.853c-9.009,9.898-13.58,21.813-13.884,35.162
			c-0.087,3.815-0.052,8.698,2.101,11.275c4.367,5.225,9.693,10.11,15.56,13.531c15.29,8.918,30.899,5.383,45.95-1.145
			c3.294-1.429,5.914-4.991,8.2-8.052c7.055-9.445,7.812-21.373,12.037-31.955c0.366-0.919-0.104-2.161-0.142-3.255
			c-0.436-12.818-0.861-25.637-1.308-38.992c9.665-4.146,18.617-8.184,27.725-11.829c6.452-2.583,13.073-4.765,19.692-6.898
			c10.422-3.357,20.767-7.099,31.394-9.63c13.996-3.335,27.46-7.858,40.449-14.01c6.582-3.118,13.389-5.771,20.141-8.519
			c4.685-1.907,9.765-3.056,14.124-5.512c21.736-12.246,43.488-24.486,64.834-37.393c12.007-7.259,23.01-16.006,31.428-27.608
			c5.17-7.127,5.192-8.393-3.271-15.095c-0.948,1.472-1.755,3.354-3.099,4.699c-5.766,5.768-11.19,12.045-17.677,16.881
			c-8.695,6.483-18.178,11.935-27.463,17.599c-15.992,9.754-32.082,19.345-48.156,28.962c-1.917,1.146-3.938,2.154-6.003,3.007
			c-15.302,6.317-30.76,12.281-45.859,19.045c-4.291,1.923-7.546,2.947-12.946-3.168c1.627,8.276-2.435,9.293-6.364,9.873
			c-16.314,2.405-31.014,9.698-46.336,15.084c-6.317,2.22-12.42,5.041-18.679,7.437c-4.817,1.844-9.726,3.448-15.411,5.447
			c0-7.687,0.405-14.124-0.126-20.483c-0.436-5.19-0.628-9.953,3.683-13.169c-2.074-3.254-4.583-5.755-5.378-8.716
			c-2.096-7.803-3.539-15.788-5.07-23.734c-1.96-10.167-3.441-20.437-5.726-30.527c-1.469-6.486-3.886-12.774-6.126-19.064
			c-1.188-3.339-4.232-5.069-7.435-4.179c-5.161,1.435-9.247-0.417-12.984-3.094c-4.033,2.819-7.616,5.324-11.418,7.981
			c1.35,2.137,2.278,3.85,3.438,5.389c2.1,2.788,1.551,5.341-0.672,7.589c-7.312,7.398-14.312,15.174-22.163,21.957
			c-13.775,11.897-27.972,23.319-42.218,34.655c-13.812,10.989-27.866,21.679-41.897,32.39c-11.064,8.445-22.29,16.68-33.382,25.09
			c-7.114,5.396-13.866,11.304-21.225,16.335c-11.801,8.069-24.304,15.136-35.896,23.479
			c-14.104,10.152-29.519,14.761-46.698,13.728c-11.131-0.67-14.466-5.429-11.766-15.895c5.056-19.59,10.024-39.199,14.989-58.812
			c2.273-8.985,3.091-18.649,7.024-26.823c4.729-9.828,2.294-16.454-4.836-22.959c-1.241-1.133-2.262-2.504-3.447-3.702
			c-3.856-3.895-10.206-5.357-14.569-2.888c-3.898,2.206-7.794,4.613-11.14,7.559c-9.606,8.451-17.178,18.91-27.682,26.645
			c-6.608,4.865-11.237,12.346-17.104,18.311c-9.039,9.192-18.19,18.295-27.636,27.065c-12.344,11.461-25.015,22.568-37.566,33.804
			c-1.029,0.922-2.177,2.259-3.358,2.359c-3.628,0.308-5.228,2.738-7.038,5.337c-1.417,2.037-3.323,3.747-5.094,5.522
			c-6.904,6.93-13.819,13.85-20.774,20.727c-3.812,3.768-7.713,7.441-11.978,11.545c-0.5-1.744-0.82-2.285-0.758-2.778
			c0.1-0.812,0.336-1.649,0.708-2.379c6.383-12.522,11.95-25.317,15.297-39.074c2.981-12.256,7.104-24.242,9.916-36.532
			c2.004-8.748,2.612-17.811,3.95-26.718c0.984-6.548-2.826-11.933-4.039-17.911c-1.817-8.955-6.6-16.039-12.337-22.685
			c-5.398-6.255-12.449-8.465-20.524-7.644c-7.369,0.75-14.275,2.798-20.542,6.964c-6.283,4.177-12.631,8.29-19.182,12.024
			c-16.269,9.273-32.715,18.235-49.001,27.479c-11.919,6.766-23.696,13.723-33.743,23.3c-3.413,3.254-7.71,5.66-11.815,8.096
			c-11.818,7.013-23.868,13.644-35.604,20.792c-17.069,10.396-35.357,13.862-54.988,10.611c-2.867-0.474-5.428-1.418-6.217-4.796
			c-3.135-13.407-6.944-26.714-6.836-40.636c0.019-2.304,0.718-5.28,2.247-6.777c7.745-7.591,16.168-14.502,23.771-22.224
			c6.619-6.724,12.888-13.896,18.523-21.456c5.013-6.727,8.59-14.509,13.433-21.379c8.381-11.892,14.795-24.881,17.574-38.91
			c2.968-14.981,5.432-30.744-6.57-44.618c-3.936,0.451-8.096,0.23-10.326-4.451c-0.34-0.712-2.055-1.255-3.011-1.103
			c-4.949,0.791-10.471,0.709-14.661,3c-11.368,6.217-21.797,14.197-29.144,24.959c-10.48,15.353-18.305,32.01-23.256,50.173
			c-7.138,26.181-10.92,52.812-13.598,79.704c-0.249,2.503-1.686,5.85-3.645,7.05c-7.619,4.665-15.383,9.343-23.635,12.666
			c-10.656,4.291-22.09,6.661-32.723,10.999c-14.502,5.918-29.545,8.941-44.914,10.983c-2.216,0.294-4.37,1.037-6.577,1.426
			c-6.881,1.211-13.747,3.12-20.668,3.362c-16.037,0.56-32.104,0.387-48.156,0.336c-7.258-0.023-14.516-0.451-21.771-0.722
			c-2.251-0.083-4.498-0.357-6.748-0.361c-8.766-0.016-17.35-0.842-25.602-5.374c-5.632-26.106-14.973-51.837-14.067-78.538
			c5.12-1.306,9.988-1.665,13.88-3.803c3.471-1.906,5.829-5.811,8.734-8.777c8.125-8.296,11.867-18.991,15.993-29.429
			c5.759-14.565,9.438-29.42,4.976-45.159c-0.533-1.883-0.536-3.909-0.907-5.846c-2.354-12.284-7.923-22.776-17.829-30.587
			c-2.325-1.832-5.48-3.759-8.201-3.688c-4.678,0.121-9.575,1.139-13.919,2.912c-12.958,5.291-26.396,9.793-36.962,19.678
			c-1.222,1.145-3.174,1.511-5.693,2.646c0.663-8.434,0.146-15.979,9.094-19.152c0.947-0.336,1.525-1.621,2.37-2.357
			c5.896-5.137,11.531-10.625,17.78-15.293c20.756-15.501,37.089-34.847,50.48-56.84c0.867-1.425,1.707-2.963,2.108-4.562
			c3.484-13.889,6.991-27.774,10.224-41.723c1.501-6.484,0.52-12.781-2.218-18.968c-4.767-10.775-9.354-21.64-13.627-32.619
			c-4.947-12.71-16.358-18.126-27.057-24.063c-3.745-2.078-8.866-1.641-12.281,2.613c-1.915,2.386-4.268,4.461-5.946,6.992
			c-10.007,15.094-17.859,31.062-20.641,49.263c-1.4,9.157-3.382,18.263-5.732,27.227c-4.914,18.737-10.276,37.355-15.392,56.04
			c-1.403,5.125-2.201,10.444-3.942,15.442c-3.81,10.936-6.865,22-8.327,33.518c-0.413,3.262-1.567,6.488-2.81,9.558
			c-0.558,1.379-1.964,2.86-3.334,3.385c-5.496,2.106-11.05,4.153-16.729,5.67c-9.504,2.536-19.222,4.301-28.668,7.018
			c-16.021,4.607-32.495,6.62-48.922,8.477c-18.735,2.116-37.642,2.473-56.191,6.55c-17.607,3.87-35.319,7.343-53.522,7.001
			c-3.913-0.074-7.835,0.716-11.761,0.96c-5.241,0.325-10.491,0.504-16.798,0.795c0.619-7.591,1.125-13.932,1.654-20.269
			c1.638-19.604,3.49-39.195,4.855-58.819c0.953-13.692,1.246-27.429,1.83-41.146c0.215-5.042,0.662-10.09,0.532-15.124
			c-0.069-2.681-0.345-6.036-1.935-7.856c-3.207-3.668-4.188-7.436-2.434-12.854c-3.013,1.066-4.958,1.754-6.807,2.408
			C691.81,103.561,688.937,100.953,685.861,98.161z M2264.341-822.608c-0.761,4.262,0.209,8.388,5.607,10.92
			c9.786,4.591,16.925,1.265,19.306-9.377c0.184-0.82,0.408-1.63,0.62-2.442c2.099-8.055,1.4-10.073-4.921-14.204
			c-4.529-2.959-10.898-2.154-15.715,1.372C2264.692-833.011,2264.542-828.357,2264.341-822.608z M1663.862-513.248
			 M2525.668-429.464"/>
		<path fill-rule="evenodd" clip-rule="evenodd" d="M1843.155-684.547c3.237-0.695,7.325-1.436,11.339-2.46
			c12.792-3.264,25.62-6.411,38.313-10.026c12.683-3.612,25.334-7.41,37.78-11.752c7.571-2.641,14.822-6.28,22.013-9.879
			c1.962-0.982,3.749-3.194,4.653-5.262c5.05-11.543,9.619-23.297,14.724-34.815c3.286-7.415,6.657-14.895,10.964-21.732
			c8.366-13.282,18.843-24.451,35.579-26.357c5.981-0.681,12.332-0.406,18.212,0.846c8.219,1.75,14.149,14.941,12.031,23.109
			c-5.113,19.708-19.41,32.279-34.133,44.377c-4.665,3.833-10.721,6.002-16.213,8.788c-4.629,2.348-8.327,6.14-13.887,7.281
			c-2.259,0.464-4.423,4.966-5.285,8.011c-3.049,10.758-5.511,21.682-8.205,32.539c-0.338,1.365-0.626,2.757-1.127,4.062
			c-6.232,16.232-12.602,32.413-18.704,48.694c-2.142,5.715-3.745,11.642-5.426,17.52c-1.624,5.677-3.071,11.406-4.53,17.13
			c-5.408,21.226-11.045,42.398-16.033,63.722c-1.582,6.763-1.776,13.931-1.892,20.925c-0.065,3.977,3.544,5.947,7.032,5.984
			c7.566,0.08,15.39,0.579,22.651-1.086c11.165-2.559,22.075-6.445,32.86-10.403c13.373-4.907,27.385-8.959,39.556-16.063
			c21.801-12.724,45.055-22.987,65.366-38.301c18.349-13.834,37.691-26.428,55.375-41.047
			c17.674-14.612,34.355-30.547,50.381-46.968c5.803-5.945,8.86-14.787,12.402-22.653c3.214-7.134,5.381-14.738,8.202-22.677
			c6.14,0.679,11.563,2.199,14.903,8.541c1.489,2.829,4.303,5.028,6.732,7.276c5.2,4.814,5.756,7.82,2.791,14.012
			c-1.556,3.25-2.743,6.7-3.841,10.141c-2.553,8.005-6.097,15.442-10.177,22.85c-5.391,9.789-9.242,20.454-13.406,30.88
			c-5.294,13.255-10.517,26.553-15.229,40.021c-2.742,7.836-4.394,16.05-6.599,24.077c-0.742,2.702-1.637,5.366-2.539,8.021
			c-0.903,2.659-2.285,5.213-2.796,7.938c-3.41,18.214-7.01,36.407-9.768,54.724c-1.287,8.544-0.734,17.357-1.196,26.039
			c-0.323,6.066,3.88,8.571,8.341,10.361c12.605,5.061,25.594,5.581,38.932,3.035c7.162-1.368,14.588-1.299,21.816-2.396
			c18.891-2.866,37.749-5.854,55.088-14.728c6.74-3.45,13.849-6.195,20.837-9.146c13.803-5.829,25.937-14.455,38.3-22.698
			c7.227-4.819,14.301-9.882,21.664-14.481c3.426-2.14,4.974-4.609,5.538-8.692c2.31-16.723,5.089-33.381,7.7-50.062
			c0.218-1.389,0.622-2.763,0.693-4.158c1.238-24.471,13.382-44.989,24.418-65.75c4.698-8.837,11.465-16.583,17.372-24.768
			c4.722-6.542,11.16-11,18.325-14.448c4.02-1.935,8.029-2.311,11.971,0.533c1.801,1.297,3.887,2.226,5.909,3.182
			c7.606,3.596,12.822,8.804,13.442,17.823c0.285,4.155,2.408,8.261,2.294,12.351c-0.423,15.237-2.825,30.098-11.321,43.271
			c-7.577,11.749-15.102,23.535-22.912,35.129c-2.164,3.213-5.3,5.762-7.923,8.676c-7.651,8.499-15.192,17.099-22.935,25.514
			c-3.414,3.712-7.146,7.142-10.853,10.573c-3.108,2.876-4.63,6.457-4.558,10.534c0.189,10.692,0.497,21.388,0.987,32.071
			c0.556,12.129,8.782,19.344,18.742,22.45c20.608,6.427,41.221,13.478,63.304,13.831c6.641,0.106,13.206,2.659,19.883,3.336
			c17.997,1.822,35.92,0.798,53.777-2.107c2.523-0.411,6.116-2.404,8.552,2.933c-6.29,2.151-12.244,4.165-18.18,6.231
			c-2.096,0.73-4.434,1.196-6.17,2.458c-9.286,6.748-19.817,7.691-30.622,6.433c-7.238-0.844-14.35-2.743-21.527-4.121
			c-10.777-2.069-21.564-4.084-32.343-6.146c-2.21-0.423-4.603-0.538-6.568-1.497c-9.546-4.661-20.39-3.442-30.186-6.876
			c-0.766-0.269-1.987-0.523-2.464-0.133c-5.743,4.703-10.837,1.104-15.518-1.621c-5.909-3.442-10.451-8.509-12.869-15.109
			c-4.641-12.673-9.747-25.218-11.058-38.849c-0.069-0.715-0.78-1.369-1.649-2.807c-2.467,2.035-4.514,4.167-6.95,5.663
			c-17.206,10.559-34.31,21.304-51.822,31.333c-9.688,5.547-20.017,10.022-30.237,14.574c-3.791,1.688-8.113,2.172-12.174,3.276
			c-15.937,4.335-31.839,8.373-48.629,8.256c-7.434-0.052-15.107,1.493-22.268,3.655c-8.76,2.646-16.62,0.166-24.784-1.876
			c-6.442-1.61-11.995-4.502-16.339-9.628c-1.045-1.233-2.346-2.407-3.77-3.137c-12.784-6.556-15.133-18.33-15.521-31.009
			c-0.103-3.36,0.991-6.789,0.672-10.104c-1.612-16.744,1.036-33.172,3.884-49.498c1.623-9.306,4.912-18.326,7.506-27.458
			c2.758-9.707,5.484-19.424,8.409-29.081c2.11-6.971,4.5-13.857,6.81-20.767c3.177-9.504,6.396-18.993,9.598-28.49
			c-0.483-0.345-0.967-0.689-1.45-1.034c-6.604,5.349-13.503,10.376-19.752,16.114c-14.034,12.886-28.471,25.234-44.035,36.256
			c-13.923,9.859-27.5,20.221-41.626,29.776c-7.807,5.281-16.513,9.215-24.658,14.021c-7.41,4.372-14.561,9.183-21.921,13.642
			c-4.958,3.005-9.959,5.989-15.157,8.541c-12.036,5.908-25.838,7.465-37.252,14.973c-0.699,0.458-1.5,0.863-2.309,1.037
			c-11.765,2.518-23.453,5.565-35.331,7.335c-16.32,2.433-29.464-4.328-37.972-17.877c-5.177-8.244-6.797-18.392-6.469-28.38
			c0.359-10.936,0.978-21.762,4.322-32.444c3.26-10.411,4.567-21.419,7.533-31.939c2.253-7.99,5.604-15.692,8.747-23.407
			c5.717-14.033,11.811-27.913,17.429-41.985c4.146-10.385,7.82-20.959,11.619-31.48c0.753-2.085,1.111-4.312,1.914-7.523
			c-2.434,0.417-4.464,0.223-5.818,1.088c-7.64,4.874-15.676,8.341-24.555,10.693c-14.588,3.866-28.631,9.811-43.246,13.543
			c-18.681,4.771-37.045,10.66-56.815,11.325c-12.694,0.428-25.239,0.263-37.873-0.31c-7.809-0.354-14.138-2.979-19.072-9.116
			c-1.969-2.448-4.367-4.551-7.558-7.823c-1.809,20.117-7.677,37.238-14.443,54.133c-2.695,6.733-3.104,14.09-6.644,20.767
			c-4.929,9.298-7.898,19.631-12.784,28.957c-7.026,13.407-14.957,26.344-22.655,39.39c-1.698,2.878-4.207,5.267-6.06,8.069
			c-3.392,5.129-6.893,10.229-9.767,15.649c-4.105,7.744-8.988,14.821-15.256,20.946c-1.204,1.177-2.491,2.335-3.42,3.716
			c-8.315,12.368-18.293,23.224-29.997,32.403c-3.236,2.538-7.283,4.028-10.909,6.086c-10.489,5.952-20.906,12.035-31.463,17.863
			c-2.414,1.333-5.241,1.985-7.941,2.715c-4.442,1.202-8.602,2.568-8.087,9.364c-2.952-2.354-4.771-4.88-6.974-5.278
			c-2.538-0.457-5.395,1.083-8.147,1.549c-5.755,0.975-11.345,2.324-17.428,1.124c-5.713-1.129-11.782-1.446-17.365,1.587
			c-0.874,0.475-2.195,0.412-3.245,0.228c-7.472-1.309-15.071-2.205-22.335-4.271c-4.732-1.345-9.128-4.18-13.374-6.83
			c-3.046-1.901-5.355-4.994-8.422-6.848c-4.405-2.664-6.813-6.556-8.402-11.14c-2.107-6.078-4.015-12.225-6.118-18.304
			c-0.336-0.974-1.24-1.751-2.414-3.338c-6.361,5.453-12.732,10.402-18.488,15.985c-6.507,6.311-12.211,13.514-18.575,19.876
			c-10.04,10.037-21.643,18.502-32.477,27.757c-7.829,6.688-15.479,13.586-23.224,20.376c-4.398,3.856-8.852,7.65-13.229,11.531
			c-5.031,4.463-9.952,9.051-15.018,13.475c-6.294,5.496-12.685,10.881-19.035,16.312c-3.607,3.086-7.539,6.003-4.763,13.809
			c-8.026-6.907-12.572-1.044-17.386,1.616c-12.732,7.031-25.092,14.733-37.699,21.996c-8.666,4.993-17.404,9.879-26.305,14.432
			c-3.118,1.594-6.979,1.682-10.221,3.098c-8.922,3.895-17.608,8.331-26.554,12.166c-7.917,3.395-15.849,7.089-24.144,9.189
			c-14.452,3.66-26.733-2.368-35.547-14.558c-9.656-13.357-13.945-28.569-17.938-44.149c-5.968-23.285-3.719-46.307,0.746-69.426
			c1.425-7.374,2.06-14.901,3.32-24.334c-3.901,2.376-6.472,3.416-8.358,5.185c-7.209,6.759-14.775,12.908-24.058,16.657
			c-1.272,0.514-2.404,1.423-3.53,2.246c-12.404,9.062-24.763,18.186-37.208,27.189c-3.176,2.298-6.512,4.424-9.956,6.294
			c-6.882,3.735-13.906,7.207-20.842,10.843c-15.127,7.928-30.314,15.742-45.323,23.887c-10.833,5.879-21.144,12.774-32.181,18.214
			c-14.997,7.391-29.33,16.538-46.146,19.682c-12.347,2.309-24.721,4.653-37.356,4.31c-7.07-0.192-10.173-5.64-12.398-11.138
			c-5.357-13.231-10.273-26.641-15.288-40.009c-0.583-1.556-0.542-3.335-1.001-4.95c-1.523-5.366-3.559-10.623-4.625-16.071
			c-1.504-7.692-2.762-15.487-3.327-23.296c-0.912-12.596-1.67-25.245-1.558-37.863c0.094-10.667,1.34-21.34,2.385-31.98
			c1.707-17.372,3.683-34.717,5.494-52.079c0.232-2.231,0.342-4.508,0.186-6.742c-0.244-3.479-0.332-6.488,3.332-8.753
			c1.564-0.968,2.256-3.752,2.816-5.853c1.157-4.334,2.073-8.743,2.832-13.166c0.196-1.146-0.561-2.455-1.122-4.624
			c-2.419,1.895-4.255,3.045-5.741,4.543c-9.861,9.936-19.415,20.188-29.535,29.848c-7.067,6.746-14.719,12.916-22.406,18.965
			c-6.307,4.963-13.125,9.269-19.578,14.053c-5.631,4.175-27.631,15.131-34.225,17.18c-4.506,1.399-8.683,3.997-13.24,5.067
			c-12.256,2.877-24.447,5.045-37.238,1.521c-8.828-2.433-16.217-7.276-23.811-11.674c-3.434-1.989-6.16-6.735-7.322-10.773
			c-2.086-7.249-3.019-14.874-3.957-22.401c-3.339-26.771-0.932-53.306,3.646-79.735c2.206-12.732,4.127-25.516,6.48-38.22
			c1.072-5.793,2.781-11.478,4.365-17.165c5.586-20.044,10.862-40.186,17.023-60.052c3.38-10.896,8.322-21.307,12.496-31.962
			c0.664-1.694,0.988-3.522,2.046-7.408c-12.782,7.488-23.864,13.788-34.753,20.408c-12.705,7.724-25.276,15.676-37.839,23.633
			c-5.908,3.742-11.649,7.746-17.494,11.588c-1.405,0.925-2.854,1.842-4.399,2.488c-9.02,3.776-18.041,7.55-27.127,11.165
			c-5.457,2.171-10.944,4.342-16.57,5.992c-8.881,2.603-17.828,5.055-26.871,6.992c-4.123,0.882-5.488,3.106-6.262,6.738
			c-2.908,13.662-6.012,27.189-12.959,39.646c-3.641,6.529-5.155,14.213-8.454,20.974c-3.409,6.985-7.724,13.541-11.823,20.174
			c-2.639,4.271-5.542,8.384-8.434,12.492c-3.803,5.404-7.525,10.879-11.61,16.065c-10.188,12.939-20.07,26.173-31.024,38.44
			c-8.35,9.349-17.821,17.791-27.408,25.912c-8.981,7.609-18.542,14.597-28.257,21.262c-13.472,9.244-28.149,16.377-44.055,20.163
			c-14.313,3.407-28.486,1.975-41.938-4.651c-5.26-2.59-10.57-5.373-16.175-6.9c-8.198-2.236-13.136-7.648-15.774-14.972
			c-2.742-7.615-4.788-15.568-6.271-23.534c-5.204-27.93-0.473-55.414,4.318-82.872c0.822-4.714,0.717-9.627,1.867-14.241
			c4.355-17.458,8.766-34.914,13.734-52.204c2.707-9.424,6.223-18.664,10.033-27.709c3.133-7.434,7.118-14.521,10.937-21.65
			c12.194-22.771,24.455-45.505,36.765-68.213c2.924-5.394,6.237-10.576,9.151-15.974c0.693-1.286,0.505-3.046,0.953-6.239
			c-5.112,2.891-8.887,5.035-12.671,7.162c-9.532,5.355-19.602,9.948-28.488,16.22c-15.997,11.292-31.016,23.967-46.98,35.309
			c-8.465,6.015-16.211,12.736-24.148,19.333c-4.451,3.7-10.23,5.753-14.996,9.133c-16.196,11.484-32.266,23.15-48.268,34.903
			c-9.221,6.771-18.339,13.697-27.297,20.812c-18.225,14.474-36.162,29.312-54.514,43.619c-9.49,7.396-19.663,13.909-29.42,20.97
			c-2.918,2.111-5.611,2.851-8.125-0.107c-1.828-2.149-2.108-4.645,0.553-6.541c10.516-7.488,21.088-14.896,31.598-22.394
			c6.584-4.699,13.338-9.204,19.594-14.312c28.249-23.065,56.652-45.931,86.207-67.309c9.736-7.042,20.223-13.059,29.869-20.212
			c13.532-10.035,26.775-20.483,39.826-31.14c18.076-14.762,36.761-28.503,57.594-39.249c10.454-5.392,20.341-11.873,30.594-17.667
			c4.809-2.718,9.814-5.12,14.867-7.357c1.705-0.755,3.832-0.563,5.441-0.763c5.833,4.421,7.543,10.599,7.369,16.721
			c-0.408,14.393-2.147,28.615-10.593,41.064c-5.462,8.053-11.222,15.979-15.846,24.506c-8.108,14.952-15.804,30.153-23.003,45.562
			c-7.111,15.22-13.616,30.735-19.985,46.286c-8.296,20.255-17.806,40.114-21.998,61.823c-4.544,23.522-7.642,47.231-6.485,71.233
			c0.377,7.816,2.371,15.575,3.941,23.296c0.354,1.746,1.707,3.616,3.134,4.764c9.085,7.308,19.313,12.065,30.885,14.235
			c12.905,2.421,24.56-1.147,35.642-6.9c10.402-5.402,21.422-9.489,31.141-16.417c19.505-13.898,38.613-28.196,53.998-46.732
			c11.62-13.997,23.65-27.804,33.76-42.863c9.818-14.624,17.56-30.662,25.936-46.229c3.587-6.664,6.818-13.569,9.586-20.61
			c3.282-8.351,6.256-16.868,8.607-25.518c0.893-3.284-0.315-7.139-0.612-11.4c1.582-2.408,3.625-5.517,5.935-9.031
			c5.9,2.987,12.055,1.8,18.443,0.084c19.558-5.25,38.383-12.617,56.582-21.204c13.577-6.406,26.092-15.087,38.991-22.901
			c16.567-10.038,32.942-20.394,49.621-30.239c5.001-2.952,10.761-4.606,16.121-6.973c1.157-0.512,2.284-1.372,3.093-2.347
			c5.174-6.237,10.289-12.524,15.359-18.847c6.827-8.511,13.379-17.255,20.49-25.52c3.051-3.545,6.943-6.56,10.918-9.083
			c18.492-11.745,39.055-18.353,60.238-23.033c8.287-1.831,16.191,1.155,23.234,5.35c8.912,5.31,17.314,11.468,26.102,17
			c11.195,7.049,18.222,17.523,23.215,29.221c4.156,9.736,6.844,20.099,10.225,30.17c0.422,1.256,1.102,2.426,2.445,5.329
			c1.803-3.766,3.256-6.038,4.018-8.521c3.67-11.962,10.199-22.387,17.129-32.619c2.981-4.401,5.499-9.206,8.996-13.144
			c4.033-4.542,8.795-8.475,13.484-12.378c2.1-1.747,4.503-0.937,5.539,1.574c1.386,3.36,2.446,6.872,3.401,10.384
			c0.735,2.699,1.443,5.493,1.515,8.261c0.068,2.645,0.006,5.708-1.224,7.9c-5.888,10.493-11.688,21.096-18.454,31.022
			c-12.745,18.701-19.477,39.757-25.365,61.201c-7.603,27.688-12.521,55.915-16.919,84.265c-1.806,11.634-4.966,23.053-7.28,34.615
			c-1.102,5.498-1.699,11.099-2.468,16.659c-1.458,10.56-2.876,21.125-4.311,31.688c-0.796,5.855-1.71,11.697-2.364,17.567
			c-2.084,18.695-4.572,37.329-5.35,56.182c-0.637,15.457-3.133,30.828-4.139,46.281c-0.766,11.776-0.521,23.622-0.635,35.438
			c-0.013,1.368,0.1,3.181,0.93,4.041c4.791,4.968,4.023,11.408,4.9,17.382c0.775,5.286,1.817,10.158,4.894,14.95
			c2.762,4.303,3.614,9.964,4.736,15.151c1.346,6.221,1.714,6.897,8.169,6.97c9.968,0.112,19.333-2.261,28.81-5.496
			c14.689-5.015,28.506-11.698,42.138-18.904c4.209-2.225,8.373-4.618,12.236-7.385c2.358-1.69,4.102-4.239,6.618-6.934
			c7.434,1.027,13.774-3.332,20.428-6.977c19.923-10.917,40.19-21.241,59.782-32.72c13.244-7.761,25.599-17.045,38.304-25.717
			c9.256-6.318,18.544-12.597,27.598-19.196c4.296-3.131,8.277-6.771,12.001-10.573c1.584-1.617,2.976-4.217,3.033-6.408
			c0.344-13.289,1.882-26.335,5.518-39.177c1.131-3.993,0.648-8.415,1.224-12.596c3.335-24.252,7.865-48.247,14.229-71.93
			c4.665-17.364,7.414-35.27,12.575-52.467c5.46-18.188,11.706-36.148,19.472-53.641c7.764-17.485,17.514-33.786,26.603-50.478
			c4.942-9.081,11.843-17.086,16.915-26.107c8.707-15.485,20.014-29.125,31.684-42.105c13.757-15.304,27.742-31.205,47.458-39.509
			c6.647-2.8,13.971-4.096,21.076-5.663c3.452-0.761,6.457,0.512,8.832,3.626c3.645,4.78,10.264,6.819,12.412,13.049
			c1.178,3.41,2.559,6.826,3.11,10.354c0.526,3.366,0.566,7.138-4.312,7.2c1.655,19.648-2.434,37.715-8.762,55.229
			c-5.408,14.967-12.132,29.455-17.877,44.309c-2.928,7.569-4.6,15.625-7.525,23.195c-4.442,11.491-9.295,22.834-14.316,34.086
			c-6.158,13.799-14.135,26.676-21.044,40.067c-8.545,16.56-20.324,30.973-29.142,47.224c-3.294,6.071-7.673,10.909-12.115,15.909
			c-9.512,10.704-18.792,21.619-28.471,32.167c-7.553,8.231-15.83,15.8-23.289,24.109c-6.52,7.261-12.421,15.086-18.417,22.801
			c-1.138,1.463-1.747,3.521-2.073,5.397c-2.066,11.87-3.324,23.925-6.139,35.609c-2.781,11.548-3.893,23.217-5.201,34.922
			c-2.68,23.948-1.638,47.873,1.276,71.668c0.786,6.417,4.618,12.464,7.079,18.67c0.609,1.538,1.495,2.985,1.959,4.56
			c2.043,6.928,2.062,7.248,9.313,5.875c15.489-2.932,30.478-7.713,44.961-13.874c14.99-6.377,29.89-13.003,44.594-20.012
			c20.267-9.66,39.692-20.82,56.755-35.589c12.481-10.803,24.651-21.967,36.933-33c14.38-12.92,28.977-25.614,43.02-38.893
			c12.649-11.96,24.519-24.745,37.072-36.811c4.107-3.948,8.356-7.792,14.262-9.783c9.017-3.04,13.577-11.461,13.308-20.889
			c-0.315-10.989-1.438-22.137-0.099-32.955c3.138-25.355,4.96-50.982,13.77-75.399c6.45-17.879,11.695-36.19,17.853-54.181
			c4.46-13.032,11.806-24.679,18.863-36.417c1.58-2.628,3.781-4.895,5.263-7.567c2.323-4.191,4.962-7.371,10.415-6.964
			c1.511,0.113,3.141-1.057,4.681-1.718c5.966-2.562,11.524-1.8,16.71,2.005c2.272,1.666,4.307,3.799,6.796,4.998
			c5.664,2.727,8.011,7.198,9.152,13.183c1.188,6.232,5.374,11.445,5.673,18.303c0.376,8.619-0.666,16.822-2.932,25.031
			c-1.418,5.142-3.009,10.307-3.674,15.57c-1.722,13.61-7.314,25.931-12.801,38.155c-5.255,11.712-11.852,22.834-18.092,34.086
			c-2.017,3.634-4.978,6.734-7.142,10.3c-3.181,5.241-5.545,11.038-9.134,15.958c-6.729,9.223-13.365,18.703-21.369,26.754
			c-9.202,9.256-9.992,18.826-6.533,30.632c3.283,11.206,9.225,20.451,17.226,28.404c4.467,4.438,10.097,7.724,15.312,11.374
			c1.09,0.763,2.661,1.197,4.004,1.182c11.474-0.123,22.836,1.568,34.456-0.333c18.775-3.071,34.572-12.268,51.216-20.527
			c18.907-9.385,31.634-24.74,45.502-39.308c2.516-2.643,5.026-5.346,7.139-8.307c4.221-5.917,8.136-12.051,12.229-18.059
			c5.528-8.114,11.443-15.987,16.593-24.334c9.704-15.731,21.532-30.213,28.605-47.504c4.454-10.889,8.934-21.792,12.701-32.927
			c3.947-11.671,7.248-23.574,10.479-35.472c3.215-11.843,3.116-23.94,1.771-36.057c-0.518-4.653-1.868-9.352,0.108-13.784
			c4.232-1.098,5.897,0.952,6.314,4.126c1.725,13.126,11.31,20.917,19.948,29.244c1.828,1.762,4.975,2.923,7.558,3.005
			c12.372,0.395,24.761,0.436,37.143,0.371c5.86-0.03,11.719-0.579,15.712-0.792 M671.842-510.129
			c0.503,0.039,1.006,0.078,1.509,0.117c0,5.632-0.356,11.296,0.147,16.884c0.259,2.878,1.506,6.031,3.263,8.33
			c3.225,4.221,7.057,8.003,10.849,11.752c1.274,1.26,3.23,2.679,4.818,2.614c5.027-0.204,10.272-0.312,14.992-1.829
			c14.447-4.642,28.942-9.504,41.819-17.709c11.301-7.201,22.109-15.194,32.958-23.081c9.525-6.925,18.258-14.698,26.033-23.673
			c7.683-8.868,16.184-17.033,24.419-25.415c7.604-7.741,15.655-14.765,17.837-26.564c2.326-12.589,6.8-24.767,9.512-37.303
			c2.305-10.655,2.706-21.739,5.25-32.321c4.264-17.74,10.186-35.091,14.156-52.886c1.916-8.585,0.98-17.806,1.338-26.738
			c-4.868-5.281-3.721-12.041-4.663-18.33c-0.533-3.555-1.593-7.113-2.967-10.442c-2.113-5.119-5.709-9.82-6.872-15.095
			c-2.227-10.105-8.566-16.029-17.258-20.137c-7.345-3.471-14.702-6.992-22.299-9.838c-12.471-4.674-24.61-5.902-35.057,5.08
			c-3.37,3.544-8.764,5.301-9.159,11.301c-0.043,0.654-0.929,1.567-1.62,1.819c-6.881,2.507-10.265,9.006-15.43,13.458
			c-7.837,6.755-15.516,13.71-22.981,20.873c-4.433,4.251-8.489,8.928-12.429,13.651c-6.441,7.722-14.154,14.938-17.471,24.465
			c-6.543,18.798-12.34,37.901-17.443,57.144c-3.525,13.291-5.404,27.02-7.953,40.565c-2.691,14.301-5.529,28.58-7.863,42.94
			c-1.305,8.031-1.688,16.209-2.54,24.316C675.125-540.828,673.477-525.479,671.842-510.129z M1171.331-493.626
			c0.407,0.277,0.813,0.556,1.22,0.833c17.241-19.029,34.562-37.988,51.68-57.129c5.393-6.031,10.63-12.278,15.235-18.915
			c5.413-7.799,9.887-16.242,15.073-24.208c9.951-15.279,19.554-30.74,27.038-47.417c1.84-4.101,3.59-8.245,5.473-12.326
			c6.686-14.488,14.622-28.537,19.834-43.536c7.739-22.272,16.907-43.969,24.839-66.133c5.027-14.049,8.756-28.592,6.472-43.825
			c-0.813-5.426-0.47-11.216-4.177-16.382c-0.524,1.146-0.99,1.84-1.167,2.601c-1.536,6.614-1.532,6.431-8.285,6.863
			c-2.685,0.172-5.759,0.737-7.866,2.234c-6.705,4.76-13.127,9.936-19.498,15.146c-16.305,13.338-30.127,29-42.173,46.206
			c-3.828,5.466-6.061,12.164-10.339,17.174c-6.688,7.836-10.857,17.258-14.323,26.243c-9.867,25.583-22.902,49.844-30.65,76.35
			c-5.366,18.357-9.552,36.877-12.465,55.668c-3.185,20.542-5.772,41.147-11.652,61.179
			C1173.74-506.669,1172.729-500.09,1171.331-493.626z M1484.781-518.297c0.755,0.259,1.511,0.517,2.266,0.774
			c1.493-1.157,3.34-2.053,4.423-3.515c8.167-11.027,16.384-22.026,24.173-33.318c4.908-7.116,9.034-14.769,13.634-22.103
			c11.08-17.667,19.782-36.404,25.373-56.512c2.779-9.995,5.287-20.068,7.713-30.156c0.848-3.521,0.925-7.22,1.623-10.785
			c1.939-9.912-4.397-17.741-6.752-26.555c-0.34-1.274-3.959-2.958-5.339-2.459c-8.912,3.229-15.866,8.798-19.485,18
			c-2.563,6.521-4.635,13.492-8.513,19.18c-5.796,8.501-9.272,17.902-12.146,27.402c-7.283,24.075-14.43,48.243-20.17,72.716
			C1487.955-550.169,1486.957-534.095,1484.781-518.297z M2414.429-526.623c1.804-0.406,2.508-0.346,2.82-0.667
			c5.821-5.983,11.655-11.958,17.365-18.046c4.774-5.091,9.777-10.035,13.997-15.565c6.283-8.238,12.109-16.84,17.865-25.464
			c5.445-8.161,11.017-16.317,12.464-26.411c0.637-4.446,1.229-8.923,2.29-13.276c1.932-7.93-0.084-15.334-1.548-22.883
			c-4.964-0.499-7.595,1.394-9.938,4.663c-4.352,6.07-9.071,11.877-13.659,17.777c-2.016,2.591-4.021,5.193-6.143,7.697
			c-4.515,5.33-7.399,11.779-11.39,17.318c-7.723,10.719-12.286,22.556-15.741,34.977c-2.851,10.248-5.252,20.625-7.652,30.991
			C2414.543-532.85,2414.684-530.013,2414.429-526.623z M1989.408-736.853c21.656-6.93,34.225-22.158,46.173-38.026
			c1.826-2.426,4.227-5.255,2.313-9.533c-3.455,2.098-4.574,6.666-9.617,6.301c-10.813-0.781-16.882,8.524-25.201,13.094
			c-1.056,0.581-1.518,2.305-2.167,3.545c-2.983,5.696-6.004,11.376-8.861,17.135
			C1991.103-742.434,1990.606-740.309,1989.408-736.853z"/>
		<path fill-rule="evenodd" clip-rule="evenodd" d="M685.861,98.161c3.075,2.792,5.948,5.4,9.037,8.202
			c1.849-0.654,3.794-1.342,6.807-2.408c-1.755,5.418-0.773,9.186,2.434,12.854c1.59,1.82,1.865,5.175,1.935,7.856
			c0.13,5.034-0.317,10.082-0.532,15.124c-0.584,13.717-0.877,27.454-1.83,41.146c-1.365,19.624-3.218,39.214-4.855,58.819
			c-0.529,6.337-1.035,12.678-1.654,20.269c6.307-0.291,11.557-0.47,16.798-0.795c3.926-0.244,7.848-1.034,11.761-0.96
			c18.203,0.342,35.915-3.131,53.522-7.001c18.55-4.077,37.456-4.434,56.191-6.55c16.427-1.856,32.901-3.869,48.922-8.477
			c9.446-2.717,19.164-4.481,28.668-7.018c5.68-1.517,11.233-3.563,16.729-5.67c1.37-0.524,2.776-2.006,3.334-3.385
			c1.242-3.069,2.396-6.296,2.81-9.558c1.462-11.518,4.518-22.582,8.327-33.518c1.741-4.998,2.539-10.317,3.942-15.442
			c5.115-18.685,10.478-37.303,15.392-56.04c2.351-8.963,4.332-18.07,5.732-27.227c2.781-18.201,10.634-34.168,20.641-49.263
			c1.679-2.531,4.031-4.606,5.946-6.992c3.415-4.253,8.536-4.69,12.281-2.613c10.698,5.938,22.109,11.354,27.057,24.063
			c4.272,10.979,8.86,21.843,13.627,32.619c2.737,6.187,3.719,12.484,2.218,18.968c-3.232,13.948-6.739,27.834-10.224,41.723
			c-0.401,1.599-1.241,3.137-2.108,4.562c-13.392,21.993-29.725,41.339-50.48,56.84c-6.249,4.668-11.885,10.156-17.78,15.293
			c-0.845,0.736-1.423,2.021-2.37,2.357c-8.947,3.174-8.431,10.719-9.094,19.152c2.52-1.136,4.472-1.502,5.693-2.646
			c10.566-9.885,24.004-14.387,36.962-19.678c4.344-1.773,9.241-2.791,13.919-2.912c2.721-0.071,5.876,1.855,8.201,3.688
			c9.906,7.811,15.475,18.303,17.829,30.587c0.371,1.937,0.374,3.963,0.907,5.846c4.463,15.739,0.783,30.594-4.976,45.159
			c-4.126,10.438-7.868,21.133-15.993,29.429c-2.905,2.967-5.264,6.871-8.734,8.777c-3.892,2.138-8.76,2.497-13.88,3.803
			c-0.905,26.701,8.436,52.432,14.067,78.538c8.252,4.532,16.836,5.358,25.602,5.374c2.25,0.004,4.497,0.278,6.748,0.361
			c7.256,0.271,14.514,0.698,21.771,0.722c16.053,0.051,32.119,0.224,48.156-0.336c6.921-0.242,13.787-2.151,20.668-3.362
			c2.207-0.389,4.361-1.132,6.577-1.426c15.369-2.042,30.412-5.065,44.914-10.983c10.633-4.338,22.066-6.708,32.723-10.999
			c8.252-3.323,16.016-8.001,23.635-12.666c1.959-1.2,3.396-4.547,3.645-7.05c2.678-26.892,6.46-53.523,13.598-79.704
			c4.951-18.163,12.775-34.82,23.256-50.173c7.347-10.762,17.775-18.742,29.144-24.959c4.19-2.291,9.712-2.209,14.661-3
			c0.956-0.152,2.671,0.391,3.011,1.103c2.23,4.682,6.391,4.902,10.326,4.451c12.002,13.874,9.538,29.637,6.57,44.618
			c-2.779,14.029-9.193,27.019-17.574,38.91c-4.843,6.87-8.42,14.652-13.433,21.379c-5.636,7.561-11.904,14.732-18.523,21.456
			c-7.604,7.722-16.026,14.633-23.771,22.224c-1.529,1.497-2.229,4.474-2.247,6.777c-0.108,13.922,3.701,27.229,6.836,40.636
			c0.789,3.378,3.35,4.322,6.217,4.796c19.631,3.251,37.919-0.215,54.988-10.611c11.735-7.148,23.785-13.779,35.604-20.792
			c4.105-2.436,8.402-4.842,11.815-8.096c10.047-9.577,21.824-16.534,33.743-23.3c16.286-9.243,32.732-18.205,49.001-27.479
			c6.551-3.734,12.898-7.848,19.182-12.024c6.267-4.166,13.173-6.214,20.542-6.964c8.075-0.821,15.126,1.389,20.524,7.644
			c5.737,6.646,10.52,13.729,12.337,22.685c1.213,5.979,5.023,11.363,4.039,17.911c-1.338,8.907-1.946,17.97-3.95,26.718
			c-2.812,12.29-6.935,24.276-9.916,36.532c-3.347,13.757-8.914,26.552-15.297,39.074c-0.372,0.729-0.608,1.567-0.708,2.379
			c-0.062,0.493,0.258,1.034,0.758,2.778c4.265-4.104,8.166-7.777,11.978-11.545c6.955-6.877,13.87-13.797,20.774-20.727
			c1.771-1.775,3.677-3.485,5.094-5.522c1.811-2.599,3.41-5.029,7.038-5.337c1.182-0.101,2.329-1.438,3.358-2.359
			c12.552-11.235,25.223-22.343,37.566-33.804c9.445-8.771,18.597-17.873,27.636-27.065c5.866-5.965,10.495-13.445,17.104-18.311
			c10.504-7.734,18.075-18.193,27.682-26.645c3.346-2.945,7.241-5.353,11.14-7.559c4.363-2.47,10.713-1.007,14.569,2.888
			c1.186,1.198,2.206,2.569,3.447,3.702c7.13,6.505,9.564,13.131,4.836,22.959c-3.934,8.174-4.751,17.838-7.024,26.823
			c-4.965,19.612-9.934,39.222-14.989,58.812c-2.7,10.466,0.635,15.225,11.766,15.895c17.18,1.033,32.594-3.575,46.698-13.728
			c11.592-8.343,24.095-15.409,35.896-23.479c7.358-5.031,14.11-10.939,21.225-16.335c11.092-8.41,22.317-16.645,33.382-25.09
			c14.031-10.711,28.085-21.4,41.897-32.39c14.246-11.336,28.442-22.758,42.218-34.655c7.852-6.783,14.852-14.559,22.163-21.957
			c2.223-2.248,2.771-4.801,0.672-7.589c-1.159-1.539-2.088-3.252-3.438-5.389c3.802-2.657,7.385-5.162,11.418-7.981
			c3.737,2.677,7.823,4.528,12.984,3.094c3.202-0.891,6.246,0.84,7.435,4.179c2.24,6.29,4.657,12.578,6.126,19.064
			c2.284,10.091,3.766,20.36,5.726,30.527c1.531,7.946,2.975,15.932,5.07,23.734c0.795,2.961,3.304,5.462,5.378,8.716
			c-4.311,3.216-4.118,7.979-3.683,13.169c0.531,6.359,0.126,12.797,0.126,20.483c5.686-1.999,10.594-3.604,15.411-5.447
			c6.259-2.396,12.361-5.217,18.679-7.437c15.322-5.386,30.021-12.679,46.336-15.084c3.93-0.58,7.991-1.597,6.364-9.873
			c5.4,6.115,8.655,5.091,12.946,3.168c15.1-6.764,30.558-12.728,45.859-19.045c2.064-0.853,4.086-1.86,6.003-3.007
			c16.074-9.617,32.164-19.208,48.156-28.962c9.285-5.664,18.768-11.115,27.463-17.599c6.486-4.836,11.911-11.113,17.677-16.881
			c1.344-1.346,2.15-3.228,3.099-4.699c8.464,6.702,8.441,7.968,3.271,15.095c-8.418,11.603-19.421,20.35-31.428,27.608
			c-21.346,12.906-43.098,25.146-64.834,37.393c-4.359,2.456-9.439,3.604-14.124,5.512c-6.752,2.748-13.559,5.4-20.141,8.519
			c-12.989,6.151-26.453,10.675-40.449,14.01c-10.627,2.531-20.972,6.272-31.394,9.63c-6.619,2.134-13.24,4.315-19.692,6.898
			c-9.107,3.646-18.06,7.683-27.725,11.829c0.446,13.355,0.872,26.174,1.308,38.992c0.037,1.094,0.508,2.336,0.142,3.255
			c-4.226,10.582-4.982,22.51-12.037,31.955c-2.286,3.061-4.906,6.623-8.2,8.052c-15.051,6.527-30.66,10.062-45.95,1.145
			c-5.866-3.421-11.192-8.307-15.56-13.531c-2.152-2.577-2.188-7.46-2.101-11.275c0.304-13.349,4.875-25.264,13.884-35.162
			c2.581-2.835,6.059-5.088,9.51-6.853c8.908-4.552,18.03-8.684,26.927-12.916c3.2-18.618-5.768-95.939-13.222-111.023
			c-2.054,2.283-3.875,4.189-5.563,6.205c-9.237,11.03-20.62,19.729-31.41,29.08c-13.997,12.133-27.8,24.49-41.851,36.559
			c-3.541,3.042-7.816,5.211-11.56,8.037c-3.577,2.701-6.901,5.736-10.335,8.625c-2.145,1.804-4.011,4.292-6.48,5.299
			c-12.578,5.128-21.02,15.684-31.503,23.534c-6.271,4.696-11.925,10.21-18.124,15.01c-3.466,2.685-7.492,4.644-11.241,6.966
			c-6.896,4.27-14.742,7.566-20.442,13.078c-9.403,9.094-21.756,12.436-32.453,18.884c-6.164,3.716-13.886,4.023-21.396,3.153
			c-6.078-0.704-12.293-1.149-18.374-0.706c-10.992,0.8-22.056-4.86-27.078-14.477c-4.072-7.796-1.275-15.416,0.285-23.072
			c0.668-3.275,1.596-6.501,2.472-9.73c2.93-10.814,5.904-21.616,8.833-32.432c2.931-10.82,5.861-21.64,8.693-32.485
			c0.332-1.27,0.046-2.7,0.046-4.469c-9.672,1.442-15.619,8.063-21.208,14.353c-10.422,11.723-22.05,22.087-33.64,32.555
			c-14.352,12.961-28.417,26.237-42.798,39.165c-6.209,5.582-13.148,10.356-19.304,15.992c-7.449,6.821-14.367,14.219-21.607,21.271
			c-13.012,12.674-26.103,25.267-39.124,37.932c-1.184,1.151-2.269,2.478-3.111,3.894c-6.007,10.092-11.938,20.229-17.883,30.334
			c-3.012,0.235-5.513,0.657-7.998,0.575c-3.822-0.127-7.165-1.225-8.677-5.374c-0.957-2.629-2.076-5.234-3.441-7.673
			c-3.371-6.017-1.416-11.212,1.721-16.638c7.856-13.586,16.327-26.923,22.896-41.124c10.714-23.166,20.593-46.768,25.457-72.071
			c2.6-13.524,5.376-27.015,7.974-40.539c1.321-6.877-0.225-13.251-3.586-19.35c-3.52-6.387-7.325-7.812-13.554-4.328
			c-7.104,3.976-14.878,7.25-20.938,12.478c-11.026,9.513-25.439,12.401-36.991,20.653c-8.617,6.154-17.557,11.859-26.147,18.05
			c-14.902,10.736-27.655,24.294-44.614,32.411c-7.437,3.559-13.72,9.52-20.545,14.363c-8.385,5.952-16.507,12.397-27.139,14.05
			c-2.217,0.345-4.484,0.814-6.537,1.682c-12.73,5.374-25.514,1.847-38.068-0.246c-9.73-1.622-15.454-9.818-21.003-17.111
			c-5.628-7.397-9.89-15.697-10.856-25.274c-0.133-1.323-0.867-2.585-1.266-3.71c-6.517-1.729-8.106,4.654-12.211,6.583
			c-3.432,1.612-6.119,4.951-9.611,6.263c-8.39,3.15-17.057,5.564-25.615,8.267c-2.948,0.931-6.147,1.387-8.815,2.832
			c-13.854,7.499-29.07,9.999-44.281,12.685c-4.421,0.78-8.989,1.658-13.016,3.517c-5.698,2.631-11.29,2.755-17.306,2.03
			c-3.166-0.382-6.486,0.675-9.748,0.918c-5.001,0.372-10.013,0.826-15.021,0.825c-4.492,0-8.979-0.688-13.478-0.86
			c-14.049-0.54-28.153-0.397-42.137-1.639c-11.809-1.047-22.761-5.801-33.323-11.134c-4.922-2.484-9.939-4.883-14.502-7.937
			c-2.416-1.617-4.734-4.263-5.728-6.951c-2.717-7.35-4.913-14.914-6.928-22.497c-1.942-7.308-3.46-14.731-5.059-22.127
			c-2.144-9.915-4.131-19.854-2.418-30.089c0.535-3.198,0.125-5.938-2.516-8.422c-1.445-1.358-1.84-3.834-3.044-6.567
			c8.187-2.345,15.557-4.651,23.03-6.551c11.373-2.89,16.665-11.896,21.427-21.225c3.302-6.47,5.659-13.415,8.64-20.059
			c5.982-13.336,4.377-26.982,1.625-40.602c-0.52-2.572-2.688-4.811-4.029-7.09c-6.799-1.431-12.764-0.749-18.821,2.843
			c-7.372,4.371-15.679,7.166-23.047,11.543c-5.428,3.223-10.177,7.695-14.854,12.019c-1.641,1.517-2.238,4.211-3.166,6.429
			c-0.422,1.011-0.103,2.652-0.773,3.184c-5.673,4.499-4.163,11.102-5.303,16.954c-2.677,13.744-5.345,27.462-7.407,41.339
			c-2.471,16.607-6.44,33.008-10.149,49.409c-1.222,5.403-4.034,10.434-5.438,15.812c-2.253,8.622-3.873,17.407-5.889,26.094
			c-0.949,4.084-1.758,8.302-3.492,12.062c-0.875,1.896-3.484,3.488-5.643,4.184c-3.675,1.186-7.588,1.769-11.445,2.208
			c-4.132,0.47-5.53-2.54-5.561-5.846c-0.07-7.577-0.657-15.32,0.645-22.699c2.242-12.714,5.597-25.245,8.822-37.767
			c1.602-6.219,3.975-12.237,5.947-18.362c0.344-1.063,0.656-2.224,0.598-3.317c-0.751-14.09,6.23-26.639,7.97-40.247
			c1.029-8.054,2.624-16.047,4.239-24.011c2.662-13.123,5.547-26.2,8.537-40.236c-8.801,1.996-16.899,3.311-24.668,5.696
			c-20.506,6.294-41.417,10.647-62.604,13.658c-8.35,1.187-16.91,0.877-25.258,2.069c-15.297,2.185-30.467,5.258-45.766,7.425
			c-11.148,1.579-22.405,2.455-33.637,3.358c-12.908,1.036-25.844,1.74-38.765,2.642c-1.081,0.076-2.133,0.552-3.602,0.952
			c-1.786,12.731-3.444,25.465-5.407,38.149c-1.059,6.84-2.633,13.599-3.999,20.389c-0.166,0.824-0.7,1.619-0.699,2.428
			c0.034,13.365-7.232,25.013-8.864,38.034c-0.949,7.573-3.989,14.602-9.12,20.537c-2.88,3.332-5.998,5.664-10.815,5.433
			c-3.324-0.16-6.75,1.258-10.041,0.963c-19.947-1.781-37.025-9.403-47.759-27.013c-15.54-25.496-9.901-58.517,15.277-77.377
			c15.301-11.461,32.856-17.821,49.866-25.567c1.004-0.457,2.052-0.819,4.25-1.688c1.545-18.084,3.272-36.503,4.652-54.947
			c1.35-18.034,5.693-35.849,3.4-54.48c-1.344,2.31-2.805,4.562-4.006,6.945c-2.115,4.197-3.471,8.582-9.252,9.9
			c-2.302,0.524-4.1,4.236-5.682,6.774c-6.941,11.138-15.971,20.227-26.301,28.235c-3.947,3.059-6.955,7.297-10.693,10.662
			c-13.256,11.934-26.653,23.665-40.666,34.765c-18.308,14.498-38.617,25.984-57.279,39.882
			c-8.068,6.008-15.984,12.228-23.871,18.476c-15.56,12.327-31.054,24.735-46.566,37.119c-8.759,6.991-17.268,14.324-26.321,20.909
			c-8.474,6.162-17.518,11.539-26.308,17.267c-0.935,0.609-2.072,1.068-2.742,1.897c-8.293,10.279-20.749,13.898-31.701,19.908
			c-9.843,5.401-19.686,10.803-29.619,16.032c-3.469,1.827-7.154,3.289-10.834,4.664c-22.415,8.376-45.731,12.274-69.496,11.019
			c-8.803-0.465-17.776-3.305-25.669-9.166c-8.697-6.457-16.501-13.427-21.977-22.677c-3.38-5.71-5.843-11.962-9.119-18.814
			c-1.727,0.652-3.961,1.44-6.153,2.332c-19.514,7.947-39.044,15.855-58.524,23.885c-22.922,9.447-46.597,16.464-70.644,22.354
			c-5.688,1.394-11.181,3.595-16.875,4.959c-2.588,0.62-5.447,0.105-8.215,0.105c-1.336-4.326,0.253-6.522,3.701-7.595
			c10.166-3.163,20.336-6.318,30.537-9.36c9.158-2.73,18.488-4.937,27.518-8.03c18.871-6.465,37.734-12.997,56.328-20.205
			c13.311-5.16,26.172-11.476,39.248-17.247c3.185-1.405,4.776-3.642,4.617-7.245c-0.084-1.926,0.539-3.872,0.616-5.817
			c0.908-23.051,7.228-45.005,15.64-66.102c6.295-15.79,14.81-30.754,29.426-41.271c4.121-2.965,7.413-6.312,12.841-6.273
			c1.291,0.009,2.637-0.912,3.877-1.559c9.851-5.132,22.595-2.387,29.162,6.464c1.132,1.525,2.247,3.456,2.37,5.268
			c0.691,10.157,0.789,20.325-4.44,29.58c-6.477,11.461-12.104,23.584-19.923,34.059c-10.459,14.011-20.755,28.541-36.515,37.675
			c-3.577,2.074-6.095,5.278-5.668,10.37c1.018,12.104,2.429,23.992,9.008,34.624c0.876,1.417,1.535,3.068,1.876,4.698
			c1.682,8.065,7.367,10.627,14.721,10.839c19.518,0.563,38.926-0.291,57.531-6.893c7.371-2.615,14.48-6.073,21.477-9.61
			c15.004-7.586,30.148-14.966,44.703-23.354c22.871-13.183,45.074-27.442,64.898-45.09c3.33-2.965,7.235-5.274,10.786-8.002
			c8.438-6.483,16.858-12.992,25.223-19.569c11.442-8.996,22.454-18.594,34.322-26.98c17.43-12.318,35.555-23.648,53.181-35.697
			c8.088-5.528,15.998-11.406,23.447-17.76c12.559-10.707,24.891-21.701,36.914-33.006c6.725-6.323,12.629-13.518,18.914-20.308
			c3.66-3.952,6.164-8.074,7.226-13.808c0.905-4.891,4.74-9.485,8.005-13.641c6.369-8.107,10.576-17.182,13.793-26.858
			c0.967-2.91,2.629-5.588,3.619-8.492c1.346-3.943,2.863-7.94,3.354-12.029C680.619,102.266,682.386,100.09,685.861,98.161z
			 M1024.329,40.57c-2.617,3.467-4.345,5.961-6.28,8.282c-6.713,8.051-13.369,15.821-16.201,26.561
			c-6.505,24.671-13.981,49.084-20.998,73.622c-2.227,7.786-4.127,15.666-6.387,23.44c-2.658,9.143-5.611,18.201-8.264,27.345
			c-0.402,1.383,0.126,3.037,0.301,5.755c7.226-5.625,13.487-10.608,19.863-15.44c15.073-11.426,27.921-24.957,39.121-40.192
			c12.475-16.969,17.034-36.641,18.869-56.882c0.699-7.725,0.076-16.165-4.132-23.702c-3.821-6.843-6.626-14.246-10.185-21.247
			C1028.744,45.568,1026.568,43.473,1024.329,40.57z M667.378,277.214c-7.527,2.938-14.104,4.675-19.807,7.943
			c-6.624,3.795-12.538,8.499-19.698,11.814c-11.447,5.299-18.955,15.761-25.121,26.545c-2.553,4.466-3.265,10.156-4.034,15.404
			c-0.419,2.853,1.632,6.089,1.146,8.906c-2.651,15.337,10.205,27.614,19.021,33.051c3.061,1.887,7.786,3.57,10.896-1.992
			c1.166-2.084,4.561-3.822,7.101-4.074c9.616-0.954,12.231-8.075,14.245-15.5c2.201-8.117,3.791-16.402,5.526-24.641
			c2.717-12.904,5.428-25.812,7.943-38.756C665.701,290.234,666.319,284.458,667.378,277.214z M1272.955,355.81
			c0.688,0.436,1.377,0.871,2.064,1.307c5.204-2.532,9.117-6.924,13.342-10.771c15.084-13.733,27.076-29.983,37.549-47.357
			c11.094-18.404,18.81-37.818,15.771-59.98c-0.238-1.735-0.937-3.408-1.655-5.933c-5.427,4.203-9.648,8.423-14.684,11.133
			c-6.406,3.449-10.784,8.668-14.759,14.252c-4.862,6.828-9.183,14.059-13.479,21.268c-11.021,18.493-19.136,38.111-22.244,59.563
			C1274.064,344.774,1273.581,350.302,1272.955,355.81z M1962.09,403.554c-3.248,0.899-5.613,1.033-7.359,2.143
			c-4.212,2.677-7.979,6.056-12.203,8.707c-10.531,6.608-17.646,16.07-22.836,27.062c-2.104,4.457-2.328,9.361,1.045,13.505
			c3.937,4.838,8.738,8.662,14.882,10.374c6.821,1.903,14.747,0.699,19.885-9.475
			C1963.766,439.506,1963.086,422.302,1962.09,403.554z M285.931,274.421c-2.714,1.289-5.552,2.261-7.979,3.857
			c-9.611,6.314-18.12,13.742-24.677,23.414c-6.96,10.268-11.43,21.69-16.293,32.931c-2.942,6.801-6.435,13.617-5.429,21.656
			C248.033,348.912,289.812,294.921,285.931,274.421z"/>
		<path fill-rule="evenodd" clip-rule="evenodd" fill="#FFFFFF" d="M671.842-510.129c1.635-15.35,3.283-30.698,4.896-46.051
			c0.852-8.107,1.235-16.285,2.54-24.316c2.334-14.36,5.172-28.64,7.863-42.94c2.549-13.545,4.428-27.274,7.953-40.565
			c5.104-19.242,10.9-38.345,17.443-57.144c3.316-9.527,11.029-16.743,17.471-24.465c3.939-4.723,7.996-9.4,12.429-13.651
			c7.466-7.163,15.145-14.118,22.981-20.873c5.165-4.453,8.549-10.952,15.43-13.458c0.691-0.252,1.577-1.165,1.62-1.819
			c0.396-6,5.789-7.757,9.159-11.301c10.446-10.982,22.586-9.754,35.057-5.08c7.597,2.846,14.954,6.367,22.299,9.838
			c8.691,4.108,15.031,10.032,17.258,20.137c1.163,5.275,4.759,9.976,6.872,15.095c1.374,3.329,2.434,6.887,2.967,10.442
			c0.942,6.29-0.205,13.049,4.663,18.33c-0.357,8.932,0.578,18.153-1.338,26.738c-3.971,17.795-9.893,35.146-14.156,52.886
			c-2.544,10.582-2.945,21.666-5.25,32.321c-2.712,12.536-7.186,24.714-9.512,37.303c-2.182,11.799-10.233,18.823-17.837,26.564
			c-8.235,8.382-16.736,16.547-24.419,25.415c-7.775,8.976-16.508,16.748-26.033,23.673c-10.849,7.886-21.657,15.879-32.958,23.081
			c-12.877,8.205-27.372,13.068-41.819,17.709c-4.72,1.517-9.965,1.625-14.992,1.829c-1.588,0.064-3.544-1.354-4.818-2.614
			c-3.792-3.749-7.624-7.531-10.849-11.752c-1.757-2.299-3.004-5.452-3.263-8.33c-0.504-5.587-0.147-11.252-0.147-16.884
			C672.848-510.051,672.345-510.09,671.842-510.129z"/>
		<path fill-rule="evenodd" clip-rule="evenodd" fill="#FFFFFF" d="M1171.331-493.626c1.398-6.464,2.409-13.043,4.268-19.372
			c5.88-20.032,8.468-40.637,11.652-61.179c2.913-18.791,7.099-37.311,12.465-55.668c7.748-26.506,20.783-50.767,30.65-76.35
			c3.466-8.985,7.635-18.407,14.323-26.243c4.278-5.011,6.511-11.708,10.339-17.174c12.046-17.205,25.868-32.867,42.173-46.206
			c6.371-5.21,12.793-10.386,19.498-15.146c2.107-1.497,5.182-2.062,7.866-2.234c6.753-0.433,6.749-0.249,8.285-6.863
			c0.177-0.761,0.643-1.456,1.167-2.601c3.707,5.166,3.363,10.956,4.177,16.382c2.284,15.233-1.444,29.776-6.472,43.825
			c-7.932,22.164-17.1,43.86-24.839,66.133c-5.212,14.999-13.148,29.047-19.834,43.536c-1.883,4.081-3.633,8.225-5.473,12.326
			c-7.484,16.677-17.087,32.138-27.038,47.417c-5.187,7.966-9.66,16.409-15.073,24.208c-4.605,6.637-9.843,12.883-15.235,18.915
			c-17.117,19.141-34.438,38.1-51.68,57.129C1172.145-493.071,1171.738-493.349,1171.331-493.626z"/>
		<path fill-rule="evenodd" clip-rule="evenodd" fill="#FFFFFF" d="M1484.781-518.297c2.176-15.798,3.174-31.872,6.799-47.33
			c5.74-24.474,12.887-48.641,20.17-72.716c2.874-9.5,6.351-18.901,12.146-27.402c3.878-5.688,5.949-12.658,8.513-19.18
			c3.619-9.202,10.573-14.771,19.485-18c1.38-0.499,4.999,1.185,5.339,2.459c2.354,8.814,8.691,16.643,6.752,26.555
			c-0.698,3.565-0.775,7.264-1.623,10.785c-2.426,10.088-4.934,20.161-7.713,30.156c-5.591,20.108-14.293,38.845-25.373,56.512
			c-4.6,7.334-8.726,14.987-13.634,22.103c-7.789,11.292-16.006,22.292-24.173,33.318c-1.083,1.461-2.93,2.357-4.423,3.515
			C1486.292-517.781,1485.536-518.039,1484.781-518.297z"/>
		<path fill-rule="evenodd" clip-rule="evenodd" fill="#FFFFFF" d="M2414.429-526.623c0.255-3.391,0.114-6.228,0.73-8.89
			c2.4-10.366,4.802-20.743,7.652-30.991c3.455-12.421,8.019-24.258,15.741-34.977c3.99-5.539,6.875-11.988,11.39-17.318
			c2.121-2.504,4.127-5.106,6.143-7.697c4.588-5.899,9.308-11.707,13.659-17.777c2.344-3.269,4.975-5.162,9.938-4.663
			c1.464,7.548,3.479,14.953,1.548,22.883c-1.062,4.354-1.653,8.831-2.29,13.276c-1.447,10.094-7.019,18.25-12.464,26.411
			c-5.756,8.625-11.582,17.226-17.865,25.464c-4.22,5.53-9.223,10.474-13.997,15.565c-5.71,6.089-11.544,12.063-17.365,18.046
			C2416.937-526.968,2416.232-527.029,2414.429-526.623z"/>
		<path fill-rule="evenodd" clip-rule="evenodd" fill="#FFFFFF" d="M1989.408-736.853c1.198-3.456,1.694-5.581,2.64-7.485
			c2.857-5.759,5.878-11.438,8.861-17.135c0.649-1.24,1.111-2.964,2.167-3.545c8.319-4.57,14.388-13.875,25.201-13.094
			c5.043,0.365,6.162-4.203,9.617-6.301c1.913,4.278-0.487,7.107-2.313,9.533C2023.633-759.011,2011.064-743.783,1989.408-736.853z"
			/>
		<path fill-rule="evenodd" clip-rule="evenodd" fill="#FFFFFF" d="M1024.329,40.57c2.239,2.903,4.415,4.999,5.708,7.542
			c3.559,7.001,6.363,14.403,10.185,21.247c4.208,7.538,4.831,15.977,4.132,23.702c-1.835,20.241-6.395,39.913-18.869,56.882
			c-11.2,15.235-24.048,28.766-39.121,40.192c-6.376,4.832-12.638,9.815-19.863,15.44c-0.175-2.718-0.703-4.372-0.301-5.755
			c2.652-9.145,5.605-18.203,8.264-27.345c2.26-7.775,4.16-15.655,6.387-23.44c7.017-24.537,14.493-48.951,20.998-73.622
			c2.832-10.74,9.488-18.51,16.201-26.561C1019.984,46.531,1021.712,44.037,1024.329,40.57z"/>
		<path fill-rule="evenodd" clip-rule="evenodd" fill="#FFFFFF" d="M667.378,277.214c-1.059,7.243-1.677,13.02-2.781,18.701
			c-2.516,12.944-5.227,25.852-7.943,38.756c-1.735,8.238-3.325,16.523-5.526,24.641c-2.014,7.425-4.629,14.546-14.245,15.5
			c-2.54,0.252-5.935,1.99-7.101,4.074c-3.11,5.562-7.836,3.879-10.896,1.992c-8.816-5.437-21.673-17.714-19.021-33.051
			c0.486-2.817-1.564-6.054-1.146-8.906c0.77-5.248,1.481-10.938,4.034-15.404c6.166-10.784,13.674-21.246,25.121-26.545
			c7.16-3.315,13.074-8.02,19.698-11.814C653.273,281.889,659.851,280.152,667.378,277.214z"/>
		<path fill-rule="evenodd" clip-rule="evenodd" fill="#FFFFFF" d="M1272.955,355.81c0.626-5.508,1.109-11.036,1.904-16.519
			c3.108-21.452,11.224-41.07,22.244-59.563c4.297-7.209,8.617-14.439,13.479-21.268c3.975-5.584,8.353-10.803,14.759-14.252
			c5.035-2.71,9.257-6.93,14.684-11.133c0.719,2.524,1.417,4.197,1.655,5.933c3.039,22.162-4.677,41.576-15.771,59.98
			c-10.473,17.374-22.465,33.624-37.549,47.357c-4.225,3.847-8.138,8.238-13.342,10.771
			C1274.332,356.681,1273.644,356.246,1272.955,355.81z"/>
		<path fill-rule="evenodd" clip-rule="evenodd" fill="#FFFFFF" d="M1962.09,403.554c0.996,18.748,1.676,35.952-6.587,52.315
			c-5.138,10.174-13.063,11.378-19.885,9.475c-6.144-1.712-10.945-5.536-14.882-10.374c-3.373-4.144-3.149-9.048-1.045-13.505
			c5.189-10.991,12.305-20.453,22.836-27.062c4.225-2.651,7.991-6.03,12.203-8.707
			C1956.477,404.587,1958.842,404.454,1962.09,403.554z"/>
		<path fill-rule="evenodd" clip-rule="evenodd" fill="#FFFFFF" d="M285.931,274.421c3.882,20.5-37.897,74.49-54.378,81.858
			c-1.006-8.039,2.486-14.855,5.429-21.656c4.863-11.24,9.333-22.663,16.293-32.931c6.557-9.672,15.065-17.1,24.677-23.414
			C280.379,276.682,283.217,275.71,285.931,274.421z"/>
	</g>
</g>
<g id="Layer_2" display="none">
	<path display="inline" fill="#FFFFFF" d="M47.667,122.874c0,0,38.333-58.667,55.333-50c9,15.333-32.667,64.667-19.667,74.667
		c8,0,26.333-4.667,47-52.333c12.333-2.667,37-12,38.333-12.667s20-20.333,26.667-14.333S207,68.54,213,98.54
		c-4.667,14.667-16.333,52.333-16.333,52.333s0.334,7.333,6.667,12.333c5,0.667,11.666,8.334,54.333-55.333
		c1.23-4.579,3.288-11.863,5.981-20.451c10.445-33.302,30.469-86.226,49.019-77.216"/>
</g>
</svg>
