<?xml version="1.0" encoding="utf-8"?>
<!-- Generator: Adobe Illustrator 16.0.0, SVG Export Plug-In . SVG Version: 6.00 Build 0)  -->
<!DOCTYPE svg PUBLIC "-//W3C//DTD SVG 1.1//EN" "http://www.w3.org/Graphics/SVG/1.1/DTD/svg11.dtd">
<svg version="1.1" id="Layer_1" xmlns="http://www.w3.org/2000/svg" xmlns:xlink="http://www.w3.org/1999/xlink" x="0px" y="0px"
	 width="2813.4px" height="539.9px" viewBox="0 0 2813.4 539.9" style="enable-background:new 0 0 2813.4 539.9;"
	 xml:space="preserve">
<style type="text/css">
<![CDATA[
	.st0{fill-rule:evenodd;clip-rule:evenodd;}
	.st1{fill:#FFFFFF;}
	.st2{fill-rule:evenodd;clip-rule:evenodd;fill:#FFFFFF;}
]]>
</style>
<g>
	<path class="st1" d="M-129.9,2173.6c0-820.9,0-1641.9,0-2463.1c1180.6,0,2361.3,0,3542,0c0,821.1,0,1642.1,0,2463.1
		C2231.5,2173.6,1050.9,2173.6-129.9,2173.6z M2392.9,440.7c2.9-7.7,1.5-16.4,6.2-23.9c2.9-4.6,4.3-10.3,5.3-15.7
		c1.7-9.5,3.6-19.1-1.1-28.5c-5.2-10.4-10.8-13.1-21.2-8.5c-11.4,5.1-22.3,11.1-31.5,19.9c-14.4,13.8-28.3,28-41.3,43.1
		c-4.1,4.8-8.1,10-13.9,13.3c-2.6-4.9,0.2-8.5,1.6-12.2c2.7-7.5,4.1-15.1,4.3-23.1c0.3-12.7-2.7-24.6-6.6-36.7
		c-4.3-13.3-19-23.2-35.7-17.7c-12.7,4.3-25,10-35.9,18c-11.5,8.5-22.8,17.5-33.5,27c-9.1,8.1-18.9,14.8-29.1,21.3
		c-6.2,4-12.9,7.4-18.5,12.2c-10.1,8.6-22.1,13.4-33.6,19.2c-4.3,2.2-9.8,2.2-14.8,2.7c-3.1,0.3-5.4-2-6.1-4.8
		c-3.1-13.1-2.5-25.5,6.5-36.6c15.3-18.9,26.5-40,34.5-62.9c4.8-13.6-0.7-22.9-12.2-28.4c-5.3-2.6-10-3-15.7,0.1
		c-8.7,4.8-16,10.6-20.9,19.5c-10,18-16.3,37.1-18.4,57.7c-1.1,11-2.2,22-3.4,33.4c-4.7,2.2-9.2,4.8-13.9,6.5
		c-11.2,4.1-22.7,7.3-34.5,9.8c-13.7,2.8-25.3-2.2-37.5-5.3c-5.7-1.5-10.1-6.4-12.8-12c-2.4-5-5.1-10-6.7-15.2
		c-1.4-4.6-3.3-8.5-6.7-11.9c-1.2-1.2-1.7-3.1-2.6-4.9c3.7-4.3,8.6-5.8,13.2-7.8c9.8-4.3,19.4-8.8,27.4-16.2
		c7.3-6.7,11.2-14.7,8-24.9c-1.4-4.4-2.2-9-3.8-13.3c-2.6-7-6.6-13.2-12.6-18c-6.3-5-13.1-7.1-20.6-2.9c-6,3.4-11.7,7.4-17.6,11
		c-1.6,1-2.6,4.4-5.5,1.8c2.2-6.2,4.2-12.4,6.7-18.3c1.2-2.8,2.9-6.2,5.4-7.7c11.5-7.1,20.7-16.9,31.1-25.3
		c11.5-9.1,16.9-21.5,21.3-34.8c4-12,1.1-21.5-9.3-29.2c-9.7-7.2-21.4-7.8-30.5-0.1c-5,4.2-9.5,8.9-12,15.1
		c-2.9,7.3-5.5,14.8-8.5,22c-7.3,17.5-14.8,34.9-22.1,52.4c-3.3,8-9.3,12.1-17.6,13.9c-5.8,1.3-11.5,3.3-17.1,5.4
		c-18.6,7-37.4,13.3-56.7,17.9c-4.9,1.2-9.6,3.2-14.4,4.8c-5.2,1.7-10.5,3.5-15.8,5.1c-5.5,1.6-11,2.9-17.1,4.5c0-2.7-0.2-4.5,0-6.3
		c1.4-13.3,2.9-26.7,4.3-40c1.2-12,1.5-24.1,3.4-35.9c2.4-14.9,0.6-29.6-0.8-44.3c-0.2-2.6-1.6-5.5-6.2-4.7c-1.9,4.1-3.4,9.1-6.3,13
		c-12.2,16.8-25.3,33-37.3,49.9c-13.4,19-28.6,36.3-45.4,52.4c-4.3,4.2-8.5,8.5-12.5,13c-5.9,6.5-11.2,13.6-17.5,19.7
		c-12,11.6-24.4,22.7-36.7,33.9c-3.8,3.4-7.3,7.4-11.5,10c-20.4,12.6-39.9,26.8-62.9,35.1c-9.7,3.5-18.7,3.3-28,1.1
		c-3.1-10.8-6.3-20.9-9-31.2c-0.9-3.4-0.8-7.2-1-9.6c17-18.5,30.4-37.8,41.3-58.9c5.7-11.1,5.7-22.4,2.8-33.8c-1.1-4.2-4.3-8-7-11.7
		c-3.1-4.1-7.6-5.1-12.5-3.6c-7.6,2.3-14.7,5.4-20.9,10.5c-12.3,10.2-18.9,23.8-22.8,38.9c-4.9,19.1-5.3,38.4-2.5,57.9
		c0.4,2.6,0,5.2,0,7.4c-6.9,3-12.7,5.9-18.8,8c-9.6,3.3-18.9,7.1-29.1,8.9c-7.8,1.3-15.6,1.4-23.3,2.6c-11,1.7-21.9,3.7-32.8,5.4
		c-22.8,3.6-45.7,6.9-68.5,10.7c-10.1,1.7-20.2,3-30.4,2.5c-13.4-0.7-26.7-1.6-40.1-2.1c-14.8-0.5-29.6-1-44.5-0.9
		c-16.3,0.1-32.1-3.5-48-6.3c-7.7-1.4-15-4.6-21-10.2c-2.6-14.6-6.5-28.9-4-41.9c9.2-7.7,17.2-14,24.7-20.8
		c7.7-6.9,12.5-15.7,15.7-25.7c4.5-13.9,0.9-25.9-8.2-36.1c-6.3-7.1-13.8-14-24.2-11.4c-16.9,14.4-23.2,32.8-26.7,53
		c-2,11.5-3.4,22.9-3.4,34.5c0,8.6-4.5,14.3-11.7,17c-13.4,5.1-26.9,10-40.8,13.7c-11.5,3.1-23.6,3.1-35.3,0.4
		c-2.6-11.1-2.9-21.9-0.1-32.2c6.5-23.5,5.5-47.8,8.6-71.6c1-7.5-2.8-13.5-6.8-19.1c-3.4-4.7-10.2-3.9-12.4,1.3
		c-3.2,7.7-6.3,15.4-8.7,23.4c-3.6,12-8.2,23.5-13.9,34.7c-13,25.5-29.4,48.1-52.9,65c-5.2,3.7-10.7,7.3-12.1,14.4
		c-0.4,1.9-3,3.4-4.6,5c-5.9,5.9-11.7,11.8-17.6,17.8c-14.5,14.6-31.6,25.6-49.9,34.7c-8.4,4.2-22,1.4-27-4.9
		c-6.7-8.5-11.3-17.8-11.9-29.1c-0.8-17.7-0.1-35.3,3.9-52.5c2.1-9.4,4.8-18.9,10.5-27.1c4-1.2,8.1-2.1,11.9-3.7
		c11.6-4.9,22.5-10.8,30.3-21.1c6.6-8.6,6-18.5-1.5-26.2c-6-6.2-13.2-6.3-20.6-4.3c-8.3,2.2-14.8,7.6-19.8,14.6
		c-7.2,10.1-14.1,20.5-21.3,31c-14.2,5.8-29.6,2.8-43.9,2.9c-0.9,1.2-1.4,1.5-1.4,1.9c-0.2,1.8-0.3,3.7-0.6,5.5
		c-2.6,16.9-6.5,33.2-16.4,47.9c-12.8,19-33.4,22.5-52.6,20c-2.7-0.3-6.4-3-7.3-5.4c-3.5-9.5-8.1-18.8-7.1-29.4
		c0.5-5.5,0.3-11.1,0.3-16.7c0-8.3,2.7-15,8.7-21.1c11-11.2,21.3-23.2,29.6-36.6c4.1-6.6,7.4-13.8,10.4-21
		c3.3-7.9-0.6-14.8-5.8-20.1c-5.6-5.7-12.9-6.8-20.5-3.4c-6.8,3.1-12.7,7.4-17.6,13.2c-15.8,19.1-24.7,41.1-27.4,65.6
		c-0.4,3.7-0.2,7.5-1.2,11c-0.7,2.4-2.3,5.4-4.4,6.5c-14,7.8-28.9,11.6-45.2,10.3c-2.4-6.9-2.7-13.2-2.4-19.7
		c1.2-22.2,2.3-44.4,3.2-66.5c0.2-4.9,2.1-8.7,4.8-12.7c9.8-14.5,19.6-29.1,26.5-45.4c4.3-10.2,9.5-20.1,14.4-30
		c7.6-15.3,15.7-30.4,22.8-46c4.6-10.1,8.3-20.6,11.6-31.2c5.1-16.3,10.1-32.7,14.1-49.3c3-12.1,3.8-24.7,2.3-37.3
		c-1.9-15.2-9.8-25.3-23.5-31c-21.4,9.6-34.7,25.5-41.9,46.6c-4,11.8-7.1,23.9-10.5,35.9c-6.9,24.5-13.7,48.9-20.6,73.4
		c-3.9,13.8-7.3,27.8-11.8,41.3c-5.9,17.7-10,35.5-10.5,54.2c-0.4,14.8-2.2,29.6-3.3,44.3c-0.5,6.2-2.6,11.4-7.2,16
		c-8.2,8.1-16.5,16.3-23.6,25.4c-8.6,11.1-18.7,20.6-29.8,28.9c-19,14-38.4,27.4-57.9,40.8c-5.3,3.6-11.4,6.2-17.2,8.9
		c-1.5,0.7-3.5,0.3-6.2,0.5c0-2.9-0.1-5.1,0-7.3c0.7-14.9,4.6-29.2,8.3-43.5c4.2-16.1,8.3-32.3,12.1-48.5c3.6-15.3,7-30.6,10.3-45.9
		c0.4-1.7,0.5-3.9-0.2-5.3c-4.6-8.2-9.8-15.6-21.2-15.3c-5.5,7.1-4.5,17.4-11.2,24.5c-1.1-1.7-1.8-2.8-2.5-3.9
		c-8.2-14.1-21.3-20.2-36.8-20.6c-10.6-0.3-21.2,1.2-31.8,2.1c-2.3,0.2-4.6,0.7-6.6,1.7c-9.6,4.5-19.4,9-24.9,18.9
		c-2.7,4.8-7,7.2-12.3,8.2c-2.3,0.4-4.5,1-6.7,1.7c-17,5.5-34.2,7.5-51.9,4.3c-4.8-0.9-9.9-2.1-14.8-0.1c-1.6,18-5.2,35.2-12,51.4
		c-4.3,10.2-9.6,20-15.2,29.5c-11.8,20.1-27.8,35.5-49.6,44.8c-8.2,3.5-15.8,4.3-24-0.9c-0.6-23.3,2.9-46.1,9.8-68.2
		c7.4-23.8,15.3-47.5,23.6-71c2.5-7.2,2.2-13.3-1.4-19.8c-3.8-6.7-6.7-8-13.3-4.2c-10.1,5.8-18.6,13.5-26.9,21.8
		c-10.1,10.1-20.7,19.9-31.6,29.2c-13.1,11.1-26.7,21.4-40.1,32.1c-2.1,1.7-4,3.7-5.8,5.8c-0.4,0.5-0.3,1.9,0.1,2.5
		c0.4,0.6,1.7,1.4,2.2,1.2c2.1-0.7,4.4-1.4,6.1-2.8c6.8-5.6,13.4-11.4,20.1-17.1c19.4-16.4,39.9-31.7,57-50.8c1.7-1.9,4.1-3,8.7-6.4
		c-4.3,10-7.4,17-10.5,24c-10.4,24.3-19.4,49.1-21.6,75.7c-1.1,13.4,0.3,26.8,3.6,39.9c1.2,4.8,3.8,8.5,8,10.8c4.8,2.7,9.9,5,15,7
		c6.7,2.6,13.3,2.6,20.2-0.2c13.9-5.7,26-13.9,36.6-24.5c10.6-10.6,18.6-22.9,25.7-36c7-12.7,12.3-25.8,15.3-40
		c1.7-8,4.3-15.9,6.7-24.4c4.4,0,8-0.3,11.6,0c17.2,1.5,34,0.3,50.2-6.4c1.8-0.7,4.2-0.1,7.2-0.1c-2.1,6.6-3.8,12.3-5.7,18
		c-2.4,7.1-3.8,14.2-4.4,21.7c-0.9,12-2.8,23.9-4,35.8c-1.2,11.5-1.8,23.1,0.8,34.6c1.8,8.1,6.2,14.3,13.2,18.7
		c14.7,9.4,29.8,8.9,44.7,1.5c12.4-6.2,23.6-14.5,32.6-25.4c3.1-3.7,6-7.8,12.3-10c-0.4,4.4-1,7.5-1,10.6
		c-0.1,11.3,3.8,20.7,13.1,27.6c3.2,2.3,6.5,3.2,10.4,2.8c9.5-1.1,17.9-4.7,25.6-10c22.1-15.3,44.4-30.2,65-47.4
		c7.1-5.9,14-12.1,20.4-18.8c8.6-9,16.6-18.7,24.9-28c1.4-1.6,2.7-4,6-2.6c0,4.4-0.1,8.9,0,13.4c0.2,7.4,0.2,14.8,0.9,22.2
		c0.3,3.1,1.2,6.7,3.1,9c7.4,8.5,15.6,15.6,28.5,14c11.1-1.4,21.7-4.2,32.1-8.3c3.7-1.5,7.2-4.6,12.2-2c0.4,2.9,1,6,1.1,9.2
		c0.3,11.4,4.3,21.7,8.9,31.9c3.1,6.8,8.5,10.9,15.5,12.9c4.9,1.4,9.9,2.3,14.8,3.6c12.9,3.6,25.4,0.4,36.1-5.7
		c14.9-8.4,24.3-22.6,30.1-38.6c2.8-7.8,4.1-16.1,6.2-24.2c0.7-2.5,1.6-5,2.4-7.3c11.3,0,21.8,0,32.1,0c0.3,1,0.6,1.4,0.6,1.8
		c-0.3,1.8-0.6,3.6-1,5.4c-5.2,18.9-7.3,38.2-6.7,57.7c0.4,11.5,1.2,23.1,3.1,34.5c2.9,17.4,9.6,22.7,28.2,28
		c2.1,0.6,4.8,0.8,6.8,0.2c9.1-2.8,18.9-3.4,26.6-10.7c4.3-4,10.3-6.1,15.2-9.6c9.4-6.7,19.1-13.1,27.8-20.7
		c9.7-8.5,18.2-18.4,27.7-27.3c9.7-9.1,17.4-20.2,28-28.5c0.7-0.6,1.3-1.3,1.9-2.1c10.2-12,20.1-24.2,27.2-38.4
		c2.3-4.5,4.4-9.3,9.8-11.6c-0.6,10.8-1.2,21.3-1.8,31.9c-0.4,8,0.3,15.8,3.5,23.2c1.1,2.5,2.3,5.6,4.5,6.8
		c8.8,4.9,17.3,9.8,28.5,8.6c20.9-2.2,40.9-7.2,60.3-15.1c5.8-2.4,12-3.8,17.4-5.5c4.3,10.9,8,20.7,12.1,30.5
		c1.9,4.6,5.3,7.8,10.5,7.8c6.7,0.1,12.6,2.3,18.5,5.2c3.2,1.6,7.1,2,10.7,2.7c3.2,0.6,6.5,0.5,9.6,1.3c11.3,2.9,22.8,3.3,34.4,3
		c16.2-0.4,32.5-0.7,48.6,0.7c16.7,1.4,33.3,1.5,49.9,1.1c6.4-0.2,12.9-1.2,19.2-2.5c11.8-2.5,23.7-3.7,35.8-3.8
		c9.6-0.1,19.3-1.7,28.8-3.3c15.5-2.6,30.9-5.6,46.4-8.6c9.5-1.8,19.2-3.3,28.4-6c8.8-2.6,17.3-6.6,25.9-10c2.5-1,4.9-2.7,7.9-0.8
		c2.5,6.3,4.8,12.8,7.6,19.1c1.3,2.9,3.1,6.1,5.6,7.7c11.8,7.3,25.1,10.4,38.6,7.7c8.9-1.7,17.2-6.3,25.6-10.2
		c6.3-2.9,11.9-7,18.1-10.2c17.4-8.9,33.4-19.8,47.4-33.5c2.3-2.3,5-4.1,7.2-6.5c10.3-11.2,23.1-19.9,32-32.6
		c4.2-6,9.3-11.5,14.6-16.6c16.2-15.9,31.9-32.1,45-50.7c8.8-12.5,18.2-24.5,27.2-36.8c1.1-1.4,1.8-3.3,4.7-1.6
		c-0.4,6.6-0.4,13.5-1.3,20.3c-3.1,22.5-5.2,45.1-5.3,67.8c0,1.8-0.4,3.7-0.6,5.5c-0.4,4.1-2.6,6.8-6.7,7.9
		c-2.2,0.6-4.5,1.3-6.7,1.8c-9.8,2.5-17.2,8.7-24.4,15.3c-3.5,3.2-5.5,7.3-6,12.2c-1.6,14.6,10,27,22.4,28.8
		c4.8,0.7,8.9,0.4,13.2-2.1c11.3-6.6,19.6-15.4,22.5-28.5c1.2-5.4,2-10.9,3.3-16.3c0.8-3.5,2-7,2.9-10.1
		c14.8-5.1,28.6-10.1,42.7-14.6c14.5-4.7,29.1-9,43.7-13.4c13.9-4.2,27.1-11,43-13.8c-0.9,3.9-1.3,6.5-2.2,9
		c-4.8,13-9.8,25.9-14.7,38.9c-8.6,22.9-17.3,45.9-25.7,68.9c-1.7,4.7-2.9,9.8-3.8,14.7c-0.7,4.2-0.4,8.4,4.1,11.5
		c4.5,0,9.3,0,14.7,0c2.1-6.5,3.7-12.7,6.1-18.7c4.6-11.6,9.5-23,14.3-34.6c3.5-8.5,7-17.1,10.6-25.6c4.6-11.1,9.2-22.2,13.9-33.3
		c1.4-3.4,2.6-7.2,5-9.8c7.9-8.5,17.3-15.3,27.6-20.8c3.8-2,7.9-2.8,11.8,0.2c5.3,11.8,6.1,24,3.1,36.5c-1.4,6-3.9,11.1-8.5,15.5
		c-7.8,7.3-16.4,13.5-25.8,18.6c-7.1,3.9-8.1,5.8-6.7,13.2c2.9,14.9,8.7,28.3,20.8,38.2c2.9,2.3,5.6,4.9,8.2,7.5
		c5,4.7,10.7,6.9,17.7,6c6-0.7,12-1.3,18-0.9c10.8,0.7,21.2-2.2,31.4-4.3c12.1-2.6,23.6-7.7,36.5-12.1c3.6,4.4,8,9.6,13.1,15.7
		c0.8,0.2,2.5,0.7,4.2,1.4c12.4,4.7,24.3,3.9,36.1-2.3c10.3-5.4,20.3-11.1,29.7-17.9c8.6-6.2,18-11.3,26.9-17.1
		c5.8-3.8,11.8-7.4,17.1-11.8c12.2-9.9,24.1-20.2,36.2-30.3c9-7.5,19.6-12.3,30.3-16.8c9.9-4.1,14.4-2,21.5,6.5
		c5.5,6.5,7.5,14,6.5,22c-1.7,13.3-3.5,26.7-8.8,39.1c-8.8,20.8-17.6,41.8-30.3,60.8c-3.1,4.6-5.7,9.6-7.7,14.7
		c-2.5,6.5,0.8,12.4,7.9,15.4c6.9,2.9,11.2,1.6,14.9-5.2c5.8-10.6,11.2-21.3,16.9-31.9c7.3-13.4,15.6-26.2,26.2-37.4
		c4.8-5,9.1-10.5,13.8-15.6c13.9-15.5,28-30.8,43.8-44.5c7.7-6.6,16.9-10.9,27.3-12.5c0.4,8.3-2.9,15.5-6.3,22.4
		c-11.3,22.9-18.9,47.2-26.6,71.5c-2.8,8.8-4.7,17.9-6.8,26.9c-3.5,14.7,0.4,21.4,14.6,26.1c4.3,1.5,8.3,1.2,12-1
		c15-9.1,31.3-16.1,44.4-28.4c2-1.9,4.3-4.3,6.7-4.6c7.1-0.9,11.3-6.1,16.2-10.1c8.6-7,16.5-14.9,25.3-21.6
		c19.5-14.9,39.2-29.4,57.2-46.1c8.8-8.2,18.3-15.6,27.4-23.4c10.2-8.7,20-17.9,28.8-28.1c0.8-0.9,2.1-1.3,4-2.4
		c0,12.8,0,24.6,0,36.8c-2.2,1.7-4.4,3.4-6.5,5.1c-12.9,10.1-23.9,21.8-32.6,35.7c-6,9.5-2.9,19.4,7.1,24.4
		c4.5,2.2,9.2,4.5,14.1,5.6c4.4,1,9.1,0.7,13.6,0.6c1.7,0,3.7-1.6,5.1-1.2c4.5,1.4,8.3,0.3,11.7-2.2c3.8-2.8,6.5-6.7,7.4-11.4
		c1.3-6.8,2.7-13.6,3.3-20.5c0.6-6.4,0-13,0.2-19.4c0.1-3.1,0-9.7,0.4-13c3.9-1.5,7-2.5,10.5-3.5c14.2-4.1,27.6-10.1,41-16.1
		c3.7-1.7,19.7-11,24.7-13.3c5-2.3,10.3-4.2,15.2-6.7c12.4-6.2,25-11.9,38.3-16c13.3-4.2,25.8-10.1,37.5-17.7
		c2.6-1.7,5.6-3.5,3.7-7.6c-9.1-1.7-9-1.5-14.6,1.1c-10.9,5.1-21.7,10.5-32.9,14.7c-14.3,5.3-28.3,11.2-42.1,17.7
		c-8.1,3.9-25.8,12.6-26.6,13.1c-11.8,7.5-24.8,11.6-37.6,17c-4.9,2.1-11.5,6.4-17.9,4.5c-2.2-9.3,0.7-21.3,2.2-30.4
		c1.1-6.8,2.8-13.7,2.9-20.6c0.1-4.9-1.5-10-3.2-14.6c-0.8-2.1-3.7-3.4-6.4-5.7c-5.3,6.8-10.1,12.9-14.8,19.2
		c-12.2,16.3-24.4,32.6-40,46c-23.5,20.2-45.4,42.3-70.2,61c-13.6,10.3-26.9,21.2-40.4,31.7c-6.6,5.1-13.6,9.7-19.8,15.2
		c-13.1,11.4-27.9,19.7-43.7,26.5c-1.5,0.6-3.3,0.5-6.2,0.9c1.1-4.5,1.5-8.2,2.9-11.4c4.5-10.6,9.6-21,13.8-31.8 M1059.5,111.3
		c-3.8-1.2-7.6-2.9-11.6-3.7c-5.2-1-9.2,1.2-11.1,6.1c-1.2,3.3-2,7.2-1.6,10.7c0.8,8.3,8.1,13.8,15.3,12.2c7-1.6,14.8-7.4,11.9-17
		C1061.6,117,1060.6,114.4,1059.5,111.3z"/>
	<path class="st0" d="M2383.8,465.8c-4.2,10.7-9.4,21.1-13.8,31.8c-1.4,3.3-1.8,6.9-2.9,11.4c2.9-0.4,4.7-0.3,6.2-0.9
		c15.8-6.8,30.7-15.1,43.7-26.5c6.3-5.5,13.3-10,19.8-15.2c13.5-10.5,26.8-21.3,40.4-31.7c24.8-18.8,46.7-40.9,70.2-61
		c15.6-13.4,27.8-29.7,40-46c4.6-6.2,9.5-12.3,14.8-19.2c2.7,2.3,5.6,3.6,6.4,5.7c1.7,4.7,3.3,9.7,3.2,14.6
		c-0.1,6.9-1.8,13.7-2.9,20.6c-1.5,9.1-4.4,21-2.2,30.3c6.4,1.9,13-2.4,17.9-4.5c12.7-5.4,25.7-9.5,37.5-17.1
		c0.8-0.5,18.6-9.1,26.7-13c13.8-6.6,27.8-12.5,42.1-17.7c11.2-4.2,22-9.6,32.9-14.7c5.7-2.7,5.6-2.9,14.6-1.1
		c1.9,4-1.1,5.9-3.7,7.6c-11.7,7.5-24.3,13.5-37.5,17.7c-13.3,4.2-25.9,9.9-38.3,16c-5,2.5-10.2,4.4-15.2,6.7
		c-5,2.3-21,11.5-24.7,13.2c-13.4,6.1-26.9,12.1-41.1,16.2c-3.5,1-6.6,2-10.5,3.5c-0.4,3.3-0.2,9.9-0.3,13.1
		c-0.2,6.5,0.4,13-0.2,19.4c-0.6,6.9-2,13.7-3.3,20.5c-0.9,4.7-3.6,8.6-7.4,11.4c-3.4,2.6-7.3,3.6-11.7,2.2
		c-1.4-0.5-3.4,1.2-5.1,1.2c-4.6,0.1-9.3,0.4-13.6-0.6c-4.9-1.1-9.6-3.4-14.1-5.6c-10-4.9-13.1-14.9-7.1-24.4
		c8.7-13.8,19.8-25.6,32.6-35.7c2.2-1.7,4.3-3.4,6.5-5.1c0-12.2,0-24,0-36.8c-1.9,1.1-3.2,1.5-4,2.4c-8.8,10.2-18.6,19.3-28.8,28.1
		c-9.1,7.8-18.6,15.2-27.4,23.4c-18,16.7-37.8,31.2-57.2,46.1c-8.8,6.7-16.7,14.6-25.3,21.6c-4.9,4-9.1,9.1-16.2,10.1
		c-2.4,0.3-4.7,2.7-6.7,4.6c-13,12.2-29.4,19.2-44.4,28.4c-3.7,2.2-7.7,2.5-12,1c-14.3-4.8-18.2-11.5-14.6-26.1
		c2.2-9,4.1-18.1,6.8-26.9c7.6-24.3,15.3-48.5,26.6-71.5c3.4-6.9,6.7-14.1,6.3-22.4c-10.4,1.6-19.6,5.9-27.3,12.5
		c-15.8,13.6-29.9,29-43.8,44.5c-4.6,5.2-9,10.6-13.8,15.6c-10.6,11.2-18.9,23.9-26.2,37.4c-5.8,10.6-11.2,21.3-16.9,31.9
		c-3.7,6.7-8,8.1-14.9,5.2c-7.1-3-10.4-8.9-7.9-15.4c2-5.1,4.6-10.1,7.7-14.7c12.7-19,21.4-39.9,30.3-60.8
		c5.3-12.4,7.1-25.8,8.8-39.1c1-8-1.1-15.5-6.5-22c-7.1-8.5-11.6-10.6-21.5-6.5c-10.6,4.5-21.2,9.3-30.3,16.8
		c-12.1,10.1-24,20.4-36.2,30.3c-5.4,4.3-11.3,8-17.1,11.8c-8.9,5.8-18.3,10.9-26.9,17.1c-9.4,6.8-19.4,12.5-29.7,17.9
		c-11.8,6.2-23.7,7-36.1,2.3c-1.7-0.7-3.5-1.1-4.2-1.4c-5.1-6-9.5-11.3-13.1-15.7c-13,4.4-24.5,9.5-36.5,12.1
		c-10.2,2.2-20.6,5-31.4,4.3c-6-0.4-12.1,0.2-18,0.9c-7,0.9-12.7-1.3-17.7-6c-2.7-2.6-5.4-5.1-8.2-7.5
		c-12.2-9.9-17.9-23.3-20.8-38.2c-1.5-7.4-0.4-9.3,6.7-13.2c9.4-5.1,17.9-11.3,25.8-18.6c4.6-4.3,7.1-9.5,8.5-15.5
		c2.9-12.6,2.2-24.7-3.1-36.5c-3.9-3.1-8-2.2-11.8-0.2c-10.3,5.4-19.6,12.3-27.6,20.8c-2.4,2.6-3.6,6.4-5,9.8
		c-4.7,11.1-9.3,22.2-13.9,33.3c-3.5,8.5-7,17.1-10.6,25.6c-4.8,11.5-9.7,23-14.3,34.6c-2.3,6-4,12.2-6.1,18.7c-5.4,0-10.3,0-14.7,0
		c-4.5-3.1-4.8-7.4-4.1-11.5c0.9-5,2-10,3.8-14.7c8.4-23,17.1-45.9,25.7-68.9c4.9-13,9.9-25.9,14.7-38.9c0.9-2.4,1.3-5.1,2.2-9
		c-15.9,2.9-29.1,9.6-43,13.8c-14.6,4.4-29.2,8.7-43.7,13.4c-14,4.5-27.9,9.5-42.7,14.6c-0.9,3.1-2.1,6.6-2.9,10.1
		c-1.2,5.4-2.1,10.9-3.3,16.3c-2.8,13.2-11.2,21.9-22.5,28.5c-4.3,2.5-8.4,2.8-13.2,2.1c-12.5-1.8-24-14.2-22.4-28.8
		c0.5-4.8,2.5-8.9,6-12.2c7.2-6.6,14.7-12.8,24.4-15.3c2.2-0.6,4.5-1.2,6.7-1.8c4.1-1.1,6.2-3.8,6.7-7.9c0.2-1.8,0.6-3.7,0.6-5.5
		c0.1-22.7,2.2-45.3,5.3-67.8c0.9-6.8,0.9-13.8,1.3-20.3c-2.9-1.7-3.7,0.1-4.7,1.6c-9.1,12.3-18.4,24.3-27.2,36.8
		c-13.1,18.6-28.8,34.9-45,50.7c-5.3,5.1-10.4,10.6-14.6,16.6c-8.9,12.6-21.7,21.4-32,32.6c-2.2,2.4-4.9,4.2-7.2,6.5
		c-14,13.7-29.9,24.7-47.4,33.5c-6.2,3.1-11.9,7.2-18.1,10.2c-8.3,3.9-16.7,8.5-25.6,10.2c-13.5,2.6-26.8-0.4-38.6-7.7
		c-2.5-1.6-4.3-4.8-5.6-7.7c-2.8-6.3-5.2-12.8-7.6-19.1c-3-1.9-5.4-0.2-7.9,0.8c-8.6,3.4-17,7.4-25.9,10c-9.3,2.7-18.9,4.2-28.4,6
		c-15.4,3-30.9,6-46.4,8.6c-9.5,1.6-19.2,3.2-28.8,3.3c-12.1,0.2-24,1.4-35.8,3.8c-6.3,1.3-12.8,2.4-19.2,2.5
		c-16.6,0.4-33.3,0.3-49.9-1.1c-16.1-1.4-32.4-1.1-48.6-0.7c-11.6,0.3-23.1-0.1-34.4-3c-3.1-0.8-6.4-0.7-9.6-1.3
		c-3.6-0.7-7.5-1.1-10.7-2.7c-5.9-2.9-11.8-5.1-18.5-5.2c-5.2-0.1-8.6-3.3-10.5-7.8c-4-9.8-7.8-19.6-12.1-30.5
		c-5.4,1.7-11.5,3.1-17.4,5.5c-19.4,7.9-39.4,12.9-60.3,15.1c-11.2,1.2-19.7-3.7-28.5-8.6c-2.1-1.2-3.4-4.3-4.5-6.8
		c-3.1-7.4-3.9-15.2-3.5-23.2c0.6-10.5,1.2-21.1,1.8-31.9c-5.4,2.4-7.5,7.1-9.8,11.6c-7.1,14.2-17,26.4-27.2,38.4
		c-0.6,0.7-1.1,1.5-1.9,2.1c-10.6,8.2-18.3,19.3-28,28.5c-9.5,8.9-18,18.8-27.7,27.3c-8.7,7.6-18.3,14-27.8,20.7
		c-4.9,3.5-10.9,5.6-15.2,9.6c-7.6,7.2-17.5,7.8-26.6,10.7c-2.1,0.6-4.7,0.5-6.8-0.2c-18.7-5.3-25.3-10.6-28.2-28
		c-1.9-11.4-2.7-23-3.1-34.5c-0.6-19.5,1.5-38.8,6.7-57.7c0.5-1.8,0.8-3.6,1-5.4c0.1-0.4-0.2-0.8-0.6-1.8c-10.3,0-20.8,0-32.1,0
		c-0.8,2.3-1.8,4.8-2.4,7.3c-2.1,8.1-3.4,16.4-6.2,24.2c-5.8,16-15.2,30.2-30.1,38.6c-10.7,6.1-23.2,9.3-36.1,5.7
		c-4.9-1.4-9.9-2.2-14.8-3.6c-7-2-12.4-6.1-15.5-12.9c-4.6-10.2-8.6-20.5-8.9-31.9c-0.1-3.2-0.7-6.3-1.1-9.2c-5-2.6-8.5,0.5-12.2,2
		c-10.4,4.1-20.9,6.9-32.1,8.3c-12.9,1.6-21-5.5-28.5-14c-2-2.2-2.9-5.9-3.1-9c-0.7-7.4-0.7-14.8-0.9-22.2c-0.1-4.5,0-9.1,0-13.4
		c-3.4-1.4-4.6,1-6,2.6c-8.3,9.3-16.3,19-24.9,28c-6.4,6.7-13.3,12.8-20.4,18.8c-20.6,17.2-42.9,32.2-65,47.4
		c-7.7,5.3-16.1,9-25.6,10c-3.9,0.4-7.3-0.4-10.4-2.8c-9.3-6.9-13.3-16.3-13.1-27.6c0-3.1,0.6-6.3,1-10.6c-6.2,2.1-9.2,6.3-12.3,10
		c-9,10.9-20.2,19.1-32.6,25.4c-14.9,7.5-30.1,7.9-44.7-1.5c-7-4.5-11.4-10.6-13.2-18.7c-2.6-11.5-2-23-0.8-34.6
		c1.2-12,3.1-23.9,4-35.8c0.6-7.5,1.9-14.6,4.4-21.7c1.9-5.6,3.6-11.4,5.7-18c-2.9,0-5.3-0.6-7.2,0.1c-16.2,6.6-33,7.9-50.2,6.4
		c-3.6-0.3-7.2,0-11.6,0c-2.4,8.5-5,16.3-6.7,24.4c-3,14.2-8.3,27.3-15.3,40c-7.2,13.1-15.2,25.4-25.7,36
		c-10.6,10.6-22.7,18.9-36.6,24.5c-6.9,2.8-13.6,2.8-20.2,0.2c-5.2-2-10.2-4.4-15-7c-4.2-2.3-6.8-6-8-10.8
		c-3.3-13.1-4.6-26.5-3.6-39.9c2.1-26.6,11.2-51.4,21.6-75.7c3-7.1,6.1-14.1,10.5-24c-4.6,3.3-7,4.5-8.7,6.4
		c-17.1,19.1-37.5,34.4-57,50.8c-6.7,5.7-13.3,11.5-20.1,17.1c-1.7,1.4-4,2.1-6.1,2.8c-0.6,0.2-1.8-0.5-2.2-1.2
		c-0.4-0.6-0.6-2.1-0.1-2.5c1.8-2.1,3.7-4.1,5.8-5.8c13.4-10.7,27-21,40.1-32.1c10.9-9.3,21.4-19.1,31.6-29.2
		c8.2-8.2,16.8-16,26.9-21.8c6.7-3.8,9.5-2.5,13.3,4.2c3.6,6.5,4,12.6,1.4,19.8c-8.3,23.5-16.2,47.2-23.6,71
		c-6.9,22.2-10.4,44.9-9.8,68.2c8.2,5.2,15.8,4.4,24,0.9c21.8-9.3,37.8-24.7,49.6-44.8c5.6-9.5,10.9-19.3,15.2-29.5
		c6.8-16.2,10.3-33.4,12-51.4c4.9-2,10-0.8,14.8,0.1c17.7,3.2,34.9,1.3,51.9-4.3c2.2-0.7,4.5-1.3,6.7-1.7c5.3-1,9.5-3.4,12.3-8.2
		c5.6-9.9,15.3-14.4,24.9-18.9c2-0.9,4.4-1.5,6.6-1.7c10.6-0.9,21.2-2.4,31.8-2.1c15.5,0.4,28.6,6.5,36.8,20.6
		c0.7,1.1,1.4,2.2,2.5,3.9c6.7-7.1,5.7-17.4,11.2-24.5c11.4-0.3,16.6,7.2,21.2,15.3c0.8,1.4,0.6,3.6,0.2,5.3
		c-3.3,15.3-6.7,30.7-10.3,45.9c-3.9,16.2-8,32.3-12.1,48.5c-3.7,14.3-7.6,28.6-8.3,43.5c-0.1,2.2,0,4.5,0,7.3
		c2.7-0.2,4.7,0.2,6.2-0.5c5.9-2.8,11.9-5.3,17.2-8.9c19.5-13.3,38.9-26.8,57.9-40.8c11.1-8.2,21.2-17.8,29.8-28.9
		c7.1-9.1,15.4-17.3,23.6-25.4c4.6-4.6,6.7-9.7,7.2-16c1.1-14.8,2.9-29.5,3.3-44.3c0.5-18.7,4.5-36.6,10.5-54.2
		c4.6-13.6,8-27.5,11.8-41.3c6.9-24.5,13.7-49,20.6-73.4c3.4-12,6.5-24.1,10.5-35.9c7.2-21.1,20.6-37,41.9-46.6
		c13.7,5.6,21.6,15.8,23.5,31c1.5,12.6,0.7,25.1-2.3,37.3c-4.1,16.6-9,33-14.1,49.3c-3.3,10.6-7,21.1-11.6,31.2
		c-7.1,15.5-15.2,30.6-22.8,46c-4.9,10-10.1,19.8-14.4,30c-6.9,16.3-16.7,30.9-26.5,45.4c-2.7,3.9-4.6,7.7-4.8,12.7
		c-0.9,22.2-2,44.4-3.2,66.5c-0.4,6.5,0,12.8,2.4,19.7c16.3,1.3,31.3-2.4,45.2-10.3c2.1-1.2,3.7-4.1,4.4-6.5c1-3.5,0.8-7.3,1.2-11
		c2.7-24.6,11.6-46.5,27.4-65.6c4.9-5.9,10.8-10.1,17.6-13.2c7.6-3.5,14.9-2.4,20.5,3.4c5.2,5.3,9.1,12.2,5.8,20.1
		c-3,7.2-6.3,14.4-10.4,21c-8.3,13.4-18.6,25.4-29.6,36.6c-6,6.1-8.7,12.8-8.7,21.1c0,5.6,0.2,11.2-0.3,16.7
		c-0.9,10.7,3.6,20,7.1,29.4c0.9,2.4,4.6,5.1,7.3,5.4c19.2,2.5,39.8-1,52.6-20c9.9-14.8,13.8-31,16.4-47.9c0.3-1.8,0.3-3.6,0.6-5.5
		c0.1-0.4,0.5-0.7,1.4-1.9c14.4-0.2,29.7,2.9,43.9-2.9c7.2-10.4,14.1-20.8,21.3-31c4.9-6.9,11.4-12.3,19.8-14.6
		c7.4-2,14.7-1.8,20.6,4.3c7.5,7.7,8.1,17.6,1.5,26.2c-7.9,10.3-18.8,16.2-30.3,21.1c-3.8,1.6-7.9,2.5-11.9,3.7
		c-5.7,8.2-8.3,17.7-10.5,27.1c-3.9,17.2-4.7,34.8-3.9,52.5c0.5,11.3,5.2,20.6,11.9,29.1c5,6.3,18.6,9.1,27,4.9
		c18.3-9.1,35.4-20.1,49.9-34.7c5.9-5.9,11.7-11.8,17.6-17.8c1.6-1.6,4.2-3.1,4.6-5c1.5-7.2,7-10.7,12.1-14.4
		c23.5-16.9,39.9-39.5,52.9-65c5.7-11.2,10.3-22.7,13.9-34.7c2.4-7.9,5.5-15.7,8.7-23.4c2.2-5.3,9-6.1,12.4-1.3
		c4.1,5.6,7.8,11.6,6.8,19.1c-3.1,23.8-2.1,48.1-8.6,71.6c-2.8,10.2-2.5,21,0.1,32.2c11.8,2.7,23.8,2.7,35.3-0.4
		c13.8-3.7,27.4-8.5,40.8-13.7c7.3-2.8,11.8-8.5,11.7-17c0-11.6,1.4-23,3.4-34.5c3.5-20.1,9.8-38.6,26.7-53
		c10.3-2.6,17.8,4.2,24.2,11.4c9,10.2,12.6,22.1,8.2,36.1c-3.2,10-7.9,18.8-15.7,25.7c-7.5,6.7-15.5,13-24.7,20.8
		c-2.5,13,1.4,27.4,4,41.9c6,5.6,13.3,8.8,21,10.2c15.9,2.8,31.7,6.4,48,6.3c14.8-0.1,29.6,0.4,44.5,0.9c13.4,0.5,26.8,1.5,40.1,2.1
		c10.2,0.5,20.3-0.9,30.4-2.5c22.8-3.8,45.7-7.1,68.5-10.7c11-1.7,21.9-3.7,32.8-5.4c7.7-1.2,15.5-1.3,23.3-2.6
		c10.2-1.7,19.5-5.6,29.1-8.9c6.1-2.1,11.9-5,18.8-8c0-2.2,0.3-4.8,0-7.4c-2.8-19.5-2.4-38.8,2.5-57.9c3.9-15.1,10.4-28.6,22.8-38.9
		c6.2-5.1,13.3-8.2,20.9-10.5c4.9-1.5,9.4-0.5,12.5,3.6c2.7,3.6,6,7.4,7,11.7c2.9,11.4,2.9,22.7-2.8,33.8
		c-10.8,21.1-24.3,40.4-41.3,58.9c0.2,2.5,0.1,6.2,1,9.6c2.7,10.2,5.8,20.4,9,31.2c9.3,2.2,18.3,2.4,28-1.1
		c22.9-8.3,42.5-22.4,62.9-35.1c4.3-2.6,7.8-6.6,11.5-10c12.3-11.3,24.7-22.3,36.7-33.9c6.3-6.1,11.6-13.2,17.5-19.7
		c4-4.5,8.2-8.8,12.5-13c16.8-16,32-33.4,45.4-52.4c12-17,25.1-33.1,37.3-49.9c2.9-4,4.4-8.9,6.3-13c4.6-0.8,5.9,2,6.2,4.7
		c1.4,14.7,3.2,29.4,0.8,44.3c-1.9,11.8-2.2,24-3.4,35.9c-1.3,13.3-2.9,26.7-4.3,40c-0.2,1.8,0,3.6,0,6.3c6.1-1.6,11.7-2.9,17.1-4.5
		c5.3-1.5,10.5-3.3,15.8-5.1c4.8-1.6,9.5-3.7,14.4-4.8c19.3-4.6,38.1-10.9,56.7-17.9c5.6-2.1,11.3-4.2,17.1-5.4
		c8.3-1.8,14.3-5.8,17.6-13.9c7.2-17.5,14.8-34.9,22.1-52.4c3-7.3,5.6-14.7,8.5-22c2.5-6.2,7-10.9,12-15.1
		c9.1-7.7,20.8-7.1,30.5,0.1c10.3,7.7,13.2,17.2,9.3,29.2c-4.4,13.3-9.8,25.7-21.3,34.8c-10.4,8.3-19.7,18.1-31.1,25.3
		c-2.5,1.5-4.2,4.8-5.4,7.7c-2.5,5.9-4.5,12.1-6.7,18.3c2.8,2.6,3.8-0.7,5.5-1.8c5.9-3.7,11.5-7.6,17.6-11
		c7.4-4.2,14.3-2.1,20.6,2.9c5.9,4.8,10,11,12.6,18c1.6,4.3,2.4,8.9,3.8,13.3c3.2,10.2-0.7,18.1-8,24.9
		c-7.9,7.3-17.6,11.9-27.4,16.2c-4.6,2-9.5,3.5-13.2,7.8c0.9,1.8,1.4,3.7,2.6,4.9c3.3,3.4,5.2,7.4,6.7,11.9
		c1.6,5.3,4.3,10.2,6.7,15.2c2.7,5.7,7.2,10.5,12.8,12c12.2,3.2,23.8,8.2,37.5,5.3c11.8-2.5,23.2-5.7,34.5-9.8
		c4.7-1.7,9.1-4.2,13.9-6.5c1.1-11.4,2.3-22.4,3.4-33.4c2-20.5,8.4-39.6,18.4-57.7c4.9-8.8,12.2-14.6,20.9-19.5
		c5.7-3.2,10.4-2.7,15.7-0.1c11.5,5.6,16.9,14.9,12.2,28.4c-8,22.9-19.2,44.1-34.5,62.9c-9,11-9.5,23.5-6.5,36.6
		c0.7,2.8,3,5.1,6.1,4.8c5-0.5,10.5-0.5,14.8-2.7c11.5-5.8,23.6-10.6,33.6-19.2c5.6-4.8,12.3-8.2,18.5-12.2
		c10.1-6.5,20-13.2,29.1-21.3c10.7-9.5,22-18.5,33.5-27c10.8-8,23.1-13.7,35.9-18c16.7-5.6,31.4,4.3,35.7,17.7
		c3.9,12,6.9,23.9,6.6,36.7c-0.2,8-1.6,15.6-4.3,23.1c-1.4,3.7-4.2,7.4-1.6,12.2c5.9-3.3,9.8-8.5,13.9-13.3
		c13-15.2,26.9-29.3,41.3-43.1c9.2-8.8,20.1-14.9,31.5-19.9c10.4-4.6,16-1.9,21.2,8.5c4.7,9.4,2.8,19,1.1,28.5
		c-1,5.4-2.4,11.2-5.3,15.7c-4.7,7.5-3.3,16.1-6.2,23.9C2392.3,442.4,2386.6,458.7,2383.8,465.8z M327.1,442.2
		c10.4,4.2,10.4,3.6,17.5,3.1c10.3-0.7,18.3-5.8,26.4-11.2c11.7-7.8,20.6-18.5,30.3-28.4c4.5-4.6,8-10.1,8.7-17
		c2-18,7.6-35.2,11.5-52.8c2.3-10.3,3.7-21,0.5-31.6c-1.2-4.1-3.1-7.6-6.8-10c-11.6-7.7-24.4-8-37.4-6.1c-1.6,0.2-3.5,1.5-4.5,2.9
		c-6.4,8.9-15.8,15.6-19.9,26.3c-1,2.5-3.1,4.6-4.5,7c-7.6,13.3-14.7,26.9-16.8,42.3c-1.5,10.5-2.7,21.1-3.4,31.7
		C327.9,413.1,327.6,427.7,327.1,442.2z M682.9,49.3c-2.6,3.5-4.7,5.9-6.3,8.6c-9.2,16-18.3,32.1-27.2,48.3c-2,3.6-4.3,7.5-4.8,11.4
		c-1.4,10.2-6.1,19.2-9.8,28.5c-1.2,3-1.9,6.2-2.7,9.3c-3.4,14.3-6.1,28.9-10.3,43c-8.3,28.4-15.7,56.9-21.7,85.9
		c-0.3,1.4,0,3,0,7.3c5.1-7,8.6-11.6,11.9-16.5c1.5-2.3,2.7-4.8,3.9-7.3c8.9-18.3,17.7-36.6,26.6-54.9c6.5-13.3,14-26.2,19.3-39.9
		c8.2-21.6,15-43.7,21.9-65.7c3.9-12.4,5.7-25.3,5.3-38.3C688.8,62.6,688.6,56,682.9,49.3z M1506.4,398.6c9-7.1,13.2-15.4,18.5-22.9
		c7.7-10.9,15.3-22,20-34.7c2.4-6.6,4.4-13.2,1.1-20.4c-8.2,0-15.1,3.2-21.3,8.3c-6.6,5.4-11.7,11.8-13.6,20.3
		c-1.2,5.4-2.6,10.8-3.4,16.2C1506.3,375.8,1503.5,386.1,1506.4,398.6z M1946.2,286.9c0.8,0.5,1.6,1,2.3,1.5c1.5-1,3-1.8,4.3-2.9
		c5.9-5.2,11.2-11,17.6-15.5c10.3-7.5,15.7-17.8,18.9-29.5c1.2-4.4,2.2-8.9,2.4-13.4c0.2-4-2.2-6.9-7.2-8c-3,1.8-6.4,4-9.9,6.1
		c-8.8,5.2-14.1,12.6-16.7,22.6c-2.4,9.3-6.2,18.3-9.1,27.5C1947.6,278.9,1947,283,1946.2,286.9z M1127.4,379.6
		c11.3-5.4,19.8-13.5,26.6-23.4c4.8-6.9,7.2-14.9,7.3-23.4c0.1-6.4-1.2-12.6-6.3-17.2C1137.2,328.8,1125.6,355.7,1127.4,379.6z
		 M2586.2,402.7c-8.3,1.3-12.5,6.5-17.4,10.4c-8.1,6.4-13.6,14.9-18.5,23.8c-2.4,4.3-1.2,8.2,3.3,10.4c4.8,2.4,10,4,14.7,5.9
		C2587.3,440.6,2587.9,422.7,2586.2,402.7z M2096.3,393.1c1.1-1.3,2.4-2.6,3.4-4c10-14,16.5-29.7,21.8-45.9c0.8-2.6,0.9-5.5,0.8-8.2
		c-0.1-3.4-1.4-6.2-5.9-6.6c-4.5,5.5-8.4,11.5-10,18.9c-0.8,4-2.7,7.8-4.2,11.6C2098.1,369.6,2096,380.8,2096.3,393.1z
		 M1750.3,367.9c-13.9,1.8-23.5,8.7-30.9,19c-2.6,3.7-1.6,8-0.6,12c1.1,4.2,4.1,6.9,8,7.8c6-1.5,8.9-6,11.1-10.4
		C1742.3,387.5,1749.8,380,1750.3,367.9z M680.4,359.5c13.2-9.5,20.5-23.5,29.1-36.4c1.6-2.4,2.2-5.6,3.2-8.4c-4.5-2.3-7,0-9.2,2.2
		C691.8,328.9,683.6,342.8,680.4,359.5z M847,346.7c0.7-0.3,1.4-0.6,2.1-0.9c-0.2-0.3-0.5-1-0.6-1c-0.7,0.2-1.4,0.5-2.1,0.8
		C846.6,345.9,846.8,346.3,847,346.7z"/>
	<path class="st0" d="M1059.5,111.3c1.1,3.1,2.1,5.7,2.9,8.3c2.9,9.6-4.9,15.4-11.9,17c-7.2,1.6-14.5-3.9-15.3-12.2
		c-0.3-3.5,0.4-7.3,1.6-10.7c1.8-4.9,5.9-7.1,11.1-6.1C1051.9,108.4,1055.7,110.1,1059.5,111.3z"/>
	<path class="st2" d="M327.1,442.2c0.5-14.4,0.8-29.1,1.7-43.8c0.7-10.6,1.9-21.2,3.4-31.7c2.1-15.4,9.3-29,16.8-42.3
		c1.4-2.4,3.5-4.5,4.5-7c4.1-10.7,13.4-17.4,19.9-26.3c1-1.4,2.9-2.6,4.5-2.9c13.1-1.9,25.8-1.6,37.4,6.1c3.8,2.5,5.6,6,6.8,10
		c3.1,10.6,1.8,21.2-0.5,31.6c-3.9,17.6-9.5,34.8-11.5,52.8c-0.8,6.9-4.2,12.4-8.7,17c-9.7,9.9-18.6,20.6-30.3,28.4
		c-8.1,5.4-16.2,10.5-26.4,11.2C337.4,445.8,337.5,446.3,327.1,442.2z"/>
	<path class="st2" d="M682.9,49.3c5.6,6.7,5.9,13.3,6.1,19.7c0.3,13-1.4,25.9-5.3,38.3c-6.9,22-13.8,44.1-21.9,65.7
		c-5.2,13.8-12.8,26.6-19.3,39.9c-8.9,18.3-17.7,36.6-26.6,54.9c-1.2,2.5-2.3,5-3.9,7.3c-3.3,4.8-6.8,9.5-11.9,16.5
		c0-4.3-0.3-5.8,0-7.3c6-28.9,13.4-57.5,21.7-85.9c4.1-14.1,6.8-28.7,10.3-43c0.7-3.1,1.5-6.3,2.7-9.3c3.7-9.3,8.4-18.3,9.8-28.5
		c0.5-4,2.8-7.8,4.8-11.4c9-16.2,18.1-32.2,27.2-48.3C678.2,55.2,680.4,52.8,682.9,49.3z"/>
	<path class="st2" d="M1506.4,398.6c-2.9-12.5-0.1-22.8,1.3-33.2c0.8-5.5,2.1-10.8,3.4-16.2c1.9-8.5,7-14.9,13.6-20.3
		c6.2-5.1,13.1-8.3,21.3-8.3c3.3,7.3,1.3,13.8-1.1,20.4c-4.7,12.7-12.3,23.8-20,34.7C1519.7,383.2,1515.4,391.5,1506.4,398.6z"/>
	<path class="st2" d="M1946.2,286.9c0.9-3.9,1.5-8,2.7-11.8c2.9-9.2,6.7-18.2,9.1-27.5c2.6-10,8-17.4,16.7-22.6
		c3.5-2.1,6.9-4.3,9.9-6.1c5,1.2,7.4,4,7.2,8c-0.3,4.5-1.2,9-2.4,13.4c-3.2,11.8-8.6,22.1-18.9,29.5c-6.3,4.5-11.7,10.4-17.6,15.5
		c-1.3,1.1-2.9,2-4.3,2.9C1947.7,287.9,1946.9,287.4,1946.2,286.9z"/>
	<path class="st2" d="M1127.4,379.6c-1.8-23.8,9.8-50.8,27.7-63.9c5.1,4.6,6.4,10.7,6.3,17.2c-0.1,8.5-2.5,16.5-7.3,23.4
		C1147.2,366,1138.7,374.2,1127.4,379.6z"/>
	<path class="st2" d="M2586.2,402.7c1.7,19.9,1.1,37.8-17.8,50.5c-4.7-1.9-9.9-3.5-14.7-5.9c-4.5-2.2-5.7-6.1-3.3-10.4
		c4.9-8.9,10.3-17.4,18.5-23.8C2573.7,409.3,2577.8,404,2586.2,402.7z"/>
	<path class="st2" d="M2096.3,393.1c-0.3-12.3,1.8-23.4,5.9-34.2c1.5-3.8,3.3-7.6,4.2-11.6c1.6-7.4,5.5-13.3,10-18.9
		c4.5,0.4,5.8,3.2,5.9,6.6c0.1,2.7,0,5.6-0.8,8.2c-5.3,16.2-11.8,31.9-21.8,45.9C2098.7,390.5,2097.5,391.7,2096.3,393.1z"/>
	<path class="st2" d="M1750.3,367.9c-0.4,12.1-7.9,19.6-12.4,28.4c-2.2,4.4-5.1,8.9-11.1,10.4c-3.9-0.9-6.9-3.5-8-7.8
		c-1.1-4-2.1-8.4,0.6-12C1726.8,376.6,1736.4,369.7,1750.3,367.9z"/>
	<path class="st2" d="M680.4,359.5c3.2-16.7,11.5-30.6,23.1-42.6c2.2-2.2,4.6-4.5,9.2-2.2c-1,2.8-1.6,6-3.2,8.4
		C700.9,336,693.6,350,680.4,359.5z"/>
	<path class="st2" d="M847,346.7c-0.2-0.4-0.4-0.7-0.6-1.1c0.7-0.3,1.4-0.6,2.1-0.8c0.1,0,0.4,0.6,0.6,1
		C848.4,346.1,847.7,346.4,847,346.7z"/>
</g>
</svg>
