<?xml version="1.0" encoding="utf-8"?>
<!-- Generator: Adobe Illustrator 16.0.0, SVG Export Plug-In . SVG Version: 6.00 Build 0)  -->
<!DOCTYPE svg PUBLIC "-//W3C//DTD SVG 1.1//EN" "http://www.w3.org/Graphics/SVG/1.1/DTD/svg11.dtd">
<svg version="1.1" xmlns="http://www.w3.org/2000/svg" xmlns:xlink="http://www.w3.org/1999/xlink" x="0px" y="0px"
	 width="2725.6px" height="491.4px" viewBox="0 0 2725.6 491.4" style="enable-background:new 0 0 2725.6 491.4;"
	 xml:space="preserve">
<style type="text/css">
<![CDATA[
	.st0{filter:url(#Adobe_OpacityMaskFilter);}
	.st1{mask:url(#Layer_1_1_);}
	.st2{fill-rule:evenodd;clip-rule:evenodd;}
	.st3{filter:url(#Adobe_OpacityMaskFilter_1_);}
]]>
</style>
<defs>
	<filter id="Adobe_OpacityMaskFilter" filterUnits="userSpaceOnUse" x="0" y="0" width="2725.6" height="491.4">
		<feFlood  style="flood-color:white;flood-opacity:1" result="back"/>
		<feBlend  in="SourceGraphic" in2="back" mode="normal"/>
	</filter>
</defs>
<mask maskUnits="userSpaceOnUse" x="0" y="0" width="2725.6" height="491.4" id="Layer_1_1_">
	<g class="st0">
	</g>
</mask>
<g id="Layer_1" class="st1">
	<g>
		<defs>
			<filter id="Adobe_OpacityMaskFilter_1_" filterUnits="userSpaceOnUse" x="0" y="0" width="2725.6" height="491.4">
				<feFlood  style="flood-color:white;flood-opacity:1" result="back"/>
				<feBlend  in="SourceGraphic" in2="back" mode="normal"/>
			</filter>
		</defs>
		<mask maskUnits="userSpaceOnUse" x="0" y="0" width="2725.6" height="491.4" id="Layer_1_1_">
			<g class="st3">
			</g>
		</mask>
		<path class="st2" d="M2330.3,438c-4.2,10.7-9.4,21.1-13.8,31.8c-1.4,3.3-1.8,6.9-2.9,11.4c2.9-0.4,4.7-0.3,6.2-0.9
			c15.8-6.8,30.7-15.1,43.7-26.5c6.3-5.5,13.3-10,19.8-15.2c13.5-10.5,26.8-21.3,40.4-31.7c24.8-18.8,46.7-40.9,70.2-61
			c15.6-13.4,27.8-29.7,40-46c4.6-6.2,9.5-12.3,14.8-19.2c2.7,2.3,5.6,3.6,6.4,5.7c1.7,4.7,3.3,9.7,3.2,14.6
			c-0.1,6.9-1.8,13.7-2.9,20.6c-1.5,9.1-4.4,21-2.2,30.3c6.4,1.9,13-2.4,17.9-4.5c12.7-5.4,25.7-9.5,37.5-17.1
			c0.8-0.5,18.6-9.1,26.7-13c13.8-6.6,27.8-12.5,42.1-17.7c11.2-4.2,22-9.6,32.9-14.7c5.7-2.7,5.6-2.9,14.6-1.1
			c1.9,4-1.1,5.9-3.7,7.6c-11.7,7.5-24.3,13.5-37.5,17.7c-13.3,4.2-25.9,9.9-38.3,16c-5,2.5-10.2,4.4-15.2,6.7
			c-5,2.3-21,11.5-24.7,13.2c-13.4,6.1-26.9,12.1-41.1,16.2c-3.5,1-6.6,2-10.5,3.5c-0.4,3.3-0.2,9.9-0.3,13.1
			c-0.2,6.5,0.4,13-0.2,19.4c-0.6,6.9-2,13.7-3.3,20.5c-0.9,4.7-3.6,8.6-7.4,11.4c-3.4,2.6-7.3,3.6-11.7,2.2
			c-1.4-0.5-3.4,1.2-5.1,1.2c-4.6,0.1-9.3,0.4-13.6-0.6c-4.9-1.1-9.6-3.4-14.1-5.6c-10-4.9-13.1-14.9-7.1-24.4
			c8.7-13.8,19.8-25.6,32.6-35.7c2.2-1.7,4.3-3.4,6.5-5.1c0-12.2,0-24,0-36.8c-1.9,1.1-3.2,1.5-4,2.4c-8.8,10.2-18.6,19.3-28.8,28.1
			c-9.1,7.8-18.6,15.2-27.4,23.4c-18,16.7-37.8,31.2-57.2,46.1c-8.8,6.7-16.7,14.6-25.3,21.6c-4.9,4-9.1,9.1-16.2,10.1
			c-2.4,0.3-4.7,2.7-6.7,4.6c-13,12.2-29.4,19.2-44.4,28.4c-3.7,2.2-7.7,2.5-12,1c-14.3-4.8-18.2-11.5-14.6-26.1
			c2.2-9,4.1-18.1,6.8-26.9c7.6-24.3,15.3-48.5,26.6-71.5c3.4-6.9,6.7-14.1,6.3-22.4c-10.4,1.6-19.6,5.9-27.3,12.5
			c-15.8,13.6-29.9,29-43.8,44.5c-4.6,5.2-9,10.6-13.8,15.6c-10.6,11.2-18.9,23.9-26.2,37.4c-5.8,10.6-11.2,21.3-16.9,31.9
			c-3.7,6.7-8,8.1-14.9,5.2c-7.1-3-10.4-8.9-7.9-15.4c2-5.1,4.6-10.1,7.7-14.7c12.7-19,21.4-39.9,30.3-60.8
			c5.3-12.4,7.1-25.8,8.8-39.1c1-8-1.1-15.5-6.5-22c-7.1-8.5-11.6-10.6-21.5-6.5c-10.6,4.5-21.2,9.3-30.3,16.8
			c-12.1,10.1-24,20.4-36.2,30.3c-5.4,4.3-11.3,8-17.1,11.8c-8.9,5.8-18.3,10.9-26.9,17.1c-9.4,6.8-19.4,12.5-29.7,17.9
			c-11.8,6.2-23.7,7-36.1,2.3c-1.7-0.7-3.5-1.1-4.2-1.4c-5.1-6-9.5-11.3-13.1-15.7c-13,4.4-24.5,9.5-36.5,12.1
			c-10.2,2.2-20.6,5-31.4,4.3c-6-0.4-12.1,0.2-18,0.9c-7,0.9-12.7-1.3-17.7-6c-2.7-2.6-5.4-5.1-8.2-7.5
			c-12.2-9.9-17.9-23.3-20.8-38.2c-1.5-7.4-0.4-9.3,6.7-13.2c9.4-5.1,17.9-11.3,25.8-18.6c4.6-4.3,7.1-9.5,8.5-15.5
			c2.9-12.6,2.2-24.7-3.1-36.5c-3.9-3.1-8-2.2-11.8-0.2c-10.3,5.4-19.6,12.3-27.6,20.8c-2.4,2.6-3.6,6.4-5,9.8
			c-4.7,11.1-9.3,22.2-13.9,33.3c-3.5,8.5-7,17.1-10.6,25.6c-4.8,11.5-9.7,23-14.3,34.6c-2.3,6-4,12.2-6.1,18.7
			c-5.4,0-10.3,0-14.7,0c-4.5-3.1-4.8-7.4-4.1-11.5c0.9-5,2-10,3.8-14.7c8.4-23,17.1-45.9,25.7-68.9c4.9-13,9.9-25.9,14.7-38.9
			c0.9-2.4,1.3-5.1,2.2-9c-15.9,2.9-29.1,9.6-43,13.8c-14.6,4.4-29.2,8.7-43.7,13.4c-14,4.5-27.9,9.5-42.7,14.6
			c-0.9,3.1-2.1,6.6-2.9,10.1c-1.2,5.4-2.1,10.9-3.3,16.3c-2.8,13.2-11.2,21.9-22.5,28.5c-4.3,2.5-8.4,2.8-13.2,2.1
			c-12.5-1.8-24-14.2-22.4-28.8c0.5-4.8,2.5-8.9,6-12.2c7.2-6.6,14.7-12.8,24.4-15.3c2.2-0.6,4.5-1.2,6.7-1.8
			c4.1-1.1,6.2-3.8,6.7-7.9c0.2-1.8,0.6-3.7,0.6-5.5c0.1-22.7,2.2-45.3,5.3-67.8c0.9-6.8,0.9-13.8,1.3-20.3
			c-2.9-1.7-3.7,0.1-4.7,1.6c-9.1,12.3-18.4,24.3-27.2,36.8c-13.1,18.6-28.8,34.9-45,50.7c-5.3,5.1-10.4,10.6-14.6,16.6
			c-8.9,12.6-21.7,21.4-32,32.6c-2.2,2.4-4.9,4.2-7.2,6.5c-14,13.7-29.9,24.7-47.4,33.5c-6.2,3.1-11.9,7.2-18.1,10.2
			c-8.3,3.9-16.7,8.5-25.6,10.2c-13.5,2.6-26.8-0.4-38.6-7.7c-2.5-1.6-4.3-4.8-5.6-7.7c-2.8-6.3-5.2-12.8-7.6-19.1
			c-3-1.9-5.4-0.2-7.9,0.8c-8.6,3.4-17,7.4-25.9,10c-9.3,2.7-18.9,4.2-28.4,6c-15.4,3-30.9,6-46.4,8.6c-9.5,1.6-19.2,3.2-28.8,3.3
			c-12.1,0.2-24,1.4-35.8,3.8c-6.3,1.3-12.8,2.4-19.2,2.5c-16.6,0.4-33.3,0.3-49.9-1.1c-16.1-1.4-32.4-1.1-48.6-0.7
			c-11.6,0.3-23.1-0.1-34.4-3c-3.1-0.8-6.4-0.7-9.6-1.3c-3.6-0.7-7.5-1.1-10.7-2.7c-5.9-2.9-11.8-5.1-18.5-5.2
			c-5.2-0.1-8.6-3.3-10.5-7.8c-4-9.8-7.8-19.6-12.1-30.5c-5.4,1.7-11.5,3.1-17.4,5.5c-19.4,7.9-39.4,12.9-60.3,15.1
			c-11.2,1.2-19.7-3.7-28.5-8.6c-2.1-1.2-3.4-4.3-4.5-6.8c-3.1-7.4-3.9-15.2-3.5-23.2c0.6-10.5,1.2-21.1,1.8-31.9
			c-5.4,2.4-7.5,7.1-9.8,11.6c-7.1,14.2-17,26.4-27.2,38.4c-0.6,0.7-1.1,1.5-1.9,2.1c-10.6,8.2-18.3,19.3-28,28.5
			c-9.5,8.9-18,18.8-27.7,27.3c-8.7,7.6-18.3,14-27.8,20.7c-4.9,3.5-10.9,5.6-15.2,9.6c-7.6,7.2-17.5,7.8-26.6,10.7
			c-2.1,0.6-4.7,0.5-6.8-0.2c-18.7-5.3-25.3-10.6-28.2-28c-1.9-11.4-2.7-23-3.1-34.5c-0.6-19.5,1.5-38.8,6.7-57.7
			c0.5-1.8,0.8-3.6,1-5.4c0.1-0.4-0.2-0.8-0.6-1.8c-10.3,0-20.8,0-32.1,0c-0.8,2.3-1.8,4.8-2.4,7.3c-2.1,8.1-3.4,16.4-6.2,24.2
			c-5.8,16-15.2,30.2-30.1,38.6c-10.7,6.1-23.2,9.3-36.1,5.7c-4.9-1.4-9.9-2.2-14.8-3.6c-7-2-12.4-6.1-15.5-12.9
			c-4.6-10.2-8.6-20.5-8.9-31.9c-0.1-3.2-0.7-6.3-1.1-9.2c-5-2.6-8.5,0.5-12.2,2c-10.4,4.1-20.9,6.9-32.1,8.3
			c-12.9,1.6-21-5.5-28.5-14c-2-2.2-2.9-5.9-3.1-9c-0.7-7.4-0.7-14.8-0.9-22.2c-0.1-4.5,0-9.1,0-13.4c-3.4-1.4-4.6,1-6,2.6
			c-8.3,9.3-16.3,19-24.9,28c-6.4,6.7-13.3,12.8-20.4,18.8c-20.6,17.2-42.9,32.2-65,47.4c-7.7,5.3-16.1,9-25.6,10
			c-3.9,0.4-7.3-0.4-10.4-2.8c-9.3-6.9-13.3-16.3-13.1-27.6c0-3.1,0.6-6.3,1-10.6c-6.2,2.1-9.2,6.3-12.3,10
			c-9,10.9-20.2,19.1-32.6,25.4c-14.9,7.5-30.1,7.9-44.7-1.5c-7-4.5-11.4-10.6-13.2-18.7c-2.6-11.5-2-23-0.8-34.6
			c1.2-12,3.1-23.9,4-35.8c0.6-7.5,1.9-14.6,4.4-21.7c1.9-5.6,3.6-11.4,5.7-18c-2.9,0-5.3-0.6-7.2,0.1c-16.2,6.6-33,7.9-50.2,6.4
			c-3.6-0.3-7.2,0-11.6,0c-2.4,8.5-5,16.3-6.7,24.4c-3,14.2-8.3,27.3-15.3,40c-7.2,13.1-15.2,25.4-25.7,36
			c-10.6,10.6-22.7,18.9-36.6,24.5c-6.9,2.8-13.6,2.8-20.2,0.2c-5.2-2-10.2-4.4-15-7c-4.2-2.3-6.8-6-8-10.8
			c-3.3-13.1-4.6-26.5-3.6-39.9c2.1-26.6,11.2-51.4,21.6-75.7c3-7.1,6.1-14.1,10.5-24c-4.6,3.3-7,4.5-8.7,6.4
			c-17.1,19.1-37.5,34.4-57,50.8c-6.7,5.7-13.3,11.5-20.1,17.1c-1.7,1.4-4,2.1-6.1,2.8c-0.6,0.2-1.8-0.5-2.2-1.2
			c-0.4-0.6-0.6-2.1-0.1-2.5c1.8-2.1,3.7-4.1,5.8-5.8c13.4-10.7,27-21,40.1-32.1c10.9-9.3,21.4-19.1,31.6-29.2
			c8.2-8.2,16.8-16,26.9-21.8c6.7-3.8,9.5-2.5,13.3,4.2c3.6,6.5,4,12.6,1.4,19.8c-8.3,23.5-16.2,47.2-23.6,71
			c-6.9,22.2-10.4,44.9-9.8,68.2c8.2,5.2,15.8,4.4,24,0.9c21.8-9.3,37.8-24.7,49.6-44.8c5.6-9.5,10.9-19.3,15.2-29.5
			c6.8-16.2,10.3-33.4,12-51.4c4.9-2,10-0.8,14.8,0.1c17.7,3.2,34.9,1.3,51.9-4.3c2.2-0.7,4.5-1.3,6.7-1.7c5.3-1,9.5-3.4,12.3-8.2
			c5.6-9.9,15.3-14.4,24.9-18.9c2-0.9,4.4-1.5,6.6-1.7c10.6-0.9,21.2-2.4,31.8-2.1c15.5,0.4,28.6,6.5,36.8,20.6
			c0.7,1.1,1.4,2.2,2.5,3.9c6.7-7.1,5.7-17.4,11.2-24.5c11.4-0.3,16.6,7.2,21.2,15.3c0.8,1.4,0.6,3.6,0.2,5.3
			c-3.3,15.3-6.7,30.7-10.3,45.9c-3.9,16.2-8,32.3-12.1,48.5c-3.7,14.3-7.6,28.6-8.3,43.5c-0.1,2.2,0,4.5,0,7.3
			c2.7-0.2,4.7,0.2,6.2-0.5c5.9-2.8,11.9-5.3,17.2-8.9c19.5-13.3,38.9-26.8,57.9-40.8c11.1-8.2,21.2-17.8,29.8-28.9
			c7.1-9.1,15.4-17.3,23.6-25.4c4.6-4.6,6.7-9.7,7.2-16c1.1-14.8,2.9-29.5,3.3-44.3c0.5-18.7,4.5-36.6,10.5-54.2
			c4.6-13.6,8-27.5,11.8-41.3c6.9-24.5,13.7-49,20.6-73.4c3.4-12,6.5-24.1,10.5-35.9c7.2-21.1,20.6-37,41.9-46.6
			c13.7,5.6,21.6,15.8,23.5,31c1.5,12.6,0.7,25.1-2.3,37.3c-4.1,16.6-9,33-14.1,49.3c-3.3,10.6-7,21.1-11.6,31.2
			c-7.1,15.5-15.2,30.6-22.8,46c-4.9,10-10.1,19.8-14.4,30c-6.9,16.3-16.7,30.9-26.5,45.4c-2.7,3.9-4.6,7.7-4.8,12.7
			c-0.9,22.2-2,44.4-3.2,66.5c-0.4,6.5,0,12.8,2.4,19.7c16.3,1.3,31.3-2.4,45.2-10.3c2.1-1.2,3.7-4.1,4.4-6.5c1-3.5,0.8-7.3,1.2-11
			c2.7-24.6,11.6-46.5,27.4-65.6c4.9-5.9,10.8-10.1,17.6-13.2c7.6-3.5,14.9-2.4,20.5,3.4c5.2,5.3,9.1,12.2,5.8,20.1
			c-3,7.2-6.3,14.4-10.4,21c-8.3,13.4-18.6,25.4-29.6,36.6c-6,6.1-8.7,12.8-8.7,21.1c0,5.6,0.2,11.2-0.3,16.7
			c-0.9,10.7,3.6,20,7.1,29.4c0.9,2.4,4.6,5.1,7.3,5.4c19.2,2.5,39.8-1,52.6-20c9.9-14.8,13.8-31,16.4-47.9c0.3-1.8,0.3-3.6,0.6-5.5
			c0.1-0.4,0.5-0.7,1.4-1.9c14.4-0.2,29.7,2.9,43.9-2.9c7.2-10.4,14.1-20.8,21.3-31c4.9-6.9,11.4-12.3,19.8-14.6
			c7.4-2,14.7-1.8,20.6,4.3c7.5,7.7,8.1,17.6,1.5,26.2c-7.9,10.3-18.8,16.2-30.3,21.1c-3.8,1.6-7.9,2.5-11.9,3.7
			c-5.7,8.2-8.3,17.7-10.5,27.1c-3.9,17.2-4.7,34.8-3.9,52.5c0.5,11.3,5.2,20.6,11.9,29.1c5,6.3,18.6,9.1,27,4.9
			c18.3-9.1,35.4-20.1,49.9-34.7c5.9-5.9,11.7-11.8,17.6-17.8c1.6-1.6,4.2-3.1,4.6-5c1.5-7.2,7-10.7,12.1-14.4
			c23.5-16.9,39.9-39.5,52.9-65c5.7-11.2,10.3-22.7,13.9-34.7c2.4-7.9,5.5-15.7,8.7-23.4c2.2-5.3,9-6.1,12.4-1.3
			c4.1,5.6,7.8,11.6,6.8,19.1c-3.1,23.8-2.1,48.1-8.6,71.6c-2.8,10.2-2.5,21,0.1,32.2c11.8,2.7,23.8,2.7,35.3-0.4
			c13.8-3.7,27.4-8.5,40.8-13.7c7.3-2.8,11.8-8.5,11.7-17c0-11.6,1.4-23,3.4-34.5c3.5-20.1,9.8-38.6,26.7-53
			c10.3-2.6,17.8,4.2,24.2,11.4c9,10.2,12.6,22.1,8.2,36.1c-3.2,10-7.9,18.8-15.7,25.7c-7.5,6.7-15.5,13-24.7,20.8
			c-2.5,13,1.4,27.4,4,41.9c6,5.6,13.3,8.8,21,10.2c15.9,2.8,31.7,6.4,48,6.3c14.8-0.1,29.6,0.4,44.5,0.9
			c13.4,0.5,26.8,1.5,40.1,2.1c10.2,0.5,20.3-0.9,30.4-2.5c22.8-3.8,45.7-7.1,68.5-10.7c11-1.7,21.9-3.7,32.8-5.4
			c7.7-1.2,15.5-1.3,23.3-2.6c10.2-1.7,19.5-5.6,29.1-8.9c6.1-2.1,11.9-5,18.8-8c0-2.2,0.3-4.8,0-7.4c-2.8-19.5-2.4-38.8,2.5-57.9
			c3.9-15.1,10.4-28.6,22.8-38.9c6.2-5.1,13.3-8.2,20.9-10.5c4.9-1.5,9.4-0.5,12.5,3.6c2.7,3.6,6,7.4,7,11.7
			c2.9,11.4,2.9,22.7-2.8,33.8c-10.8,21.1-24.3,40.4-41.3,58.9c0.2,2.5,0.1,6.2,1,9.6c2.7,10.2,5.8,20.4,9,31.2
			c9.3,2.2,18.3,2.4,28-1.1c22.9-8.3,42.5-22.4,62.9-35.1c4.3-2.6,7.8-6.6,11.5-10c12.3-11.3,24.7-22.3,36.7-33.9
			c6.3-6.1,11.6-13.2,17.5-19.7c4-4.5,8.2-8.8,12.5-13c16.8-16,32-33.4,45.4-52.4c12-17,25.1-33.1,37.3-49.9c2.9-4,4.4-8.9,6.3-13
			c4.6-0.8,5.9,2,6.2,4.7c1.4,14.7,3.2,29.4,0.8,44.3c-1.9,11.8-2.2,24-3.4,35.9c-1.3,13.3-2.9,26.7-4.3,40c-0.2,1.8,0,3.6,0,6.3
			c6.1-1.6,11.7-2.9,17.1-4.5c5.3-1.5,10.5-3.3,15.8-5.1c4.8-1.6,9.5-3.7,14.4-4.8c19.3-4.6,38.1-10.9,56.7-17.9
			c5.6-2.1,11.3-4.2,17.1-5.4c8.3-1.8,14.3-5.8,17.6-13.9c7.2-17.5,14.8-34.9,22.1-52.4c3-7.3,5.6-14.7,8.5-22
			c2.5-6.2,7-10.9,12-15.1c9.1-7.7,20.8-7.1,30.5,0.1c10.3,7.7,13.2,17.2,9.3,29.2c-4.4,13.3-9.8,25.7-21.3,34.8
			c-10.4,8.3-19.7,18.1-31.1,25.3c-2.5,1.5-4.2,4.8-5.4,7.7c-2.5,5.9-4.5,12.1-6.7,18.3c2.8,2.6,3.8-0.7,5.5-1.8
			c5.9-3.7,11.5-7.6,17.6-11c7.4-4.2,14.3-2.1,20.6,2.9c5.9,4.8,10,11,12.6,18c1.6,4.3,2.4,8.9,3.8,13.3c3.2,10.2-0.7,18.1-8,24.9
			c-7.9,7.3-17.6,11.9-27.4,16.2c-4.6,2-9.5,3.5-13.2,7.8c0.9,1.8,1.4,3.7,2.6,4.9c3.3,3.4,5.2,7.4,6.7,11.9
			c1.6,5.3,4.3,10.2,6.7,15.2c2.7,5.7,7.2,10.5,12.8,12c12.2,3.2,23.8,8.2,37.5,5.3c11.8-2.5,23.2-5.7,34.5-9.8
			c4.7-1.7,9.1-4.2,13.9-6.5c1.1-11.4,2.3-22.4,3.4-33.4c2-20.5,8.4-39.6,18.4-57.7c4.9-8.8,12.2-14.6,20.9-19.5
			c5.7-3.2,10.4-2.7,15.7-0.1c11.5,5.6,16.9,14.9,12.2,28.4c-8,22.9-19.2,44.1-34.5,62.9c-9,11-9.5,23.5-6.5,36.6
			c0.7,2.8,3,5.1,6.1,4.8c5-0.5,10.5-0.5,14.8-2.7c11.5-5.8,23.6-10.6,33.6-19.2c5.6-4.8,12.3-8.2,18.5-12.2
			c10.1-6.5,20-13.2,29.1-21.3c10.7-9.5,22-18.5,33.5-27c10.8-8,23.1-13.7,35.9-18c16.7-5.6,31.4,4.3,35.7,17.7
			c3.9,12,6.9,23.9,6.6,36.7c-0.2,8-1.6,15.6-4.3,23.1c-1.4,3.7-4.2,7.4-1.6,12.2c5.9-3.3,9.8-8.5,13.9-13.3
			c13-15.2,26.9-29.3,41.3-43.1c9.2-8.8,20.1-14.9,31.5-19.9c10.4-4.6,16-1.9,21.2,8.5c4.7,9.4,2.8,19,1.1,28.5
			c-1,5.4-2.4,11.2-5.3,15.7c-4.7,7.5-3.3,16.1-6.2,23.9C2338.7,414.6,2333.1,430.9,2330.3,438z M273.5,414.4
			c10.4,4.2,10.4,3.6,17.5,3.1c10.3-0.7,18.3-5.8,26.4-11.2c11.7-7.8,20.6-18.5,30.3-28.4c4.5-4.6,8-10.1,8.7-17
			c2-18,7.6-35.2,11.5-52.8c2.3-10.3,3.7-21,0.5-31.6c-1.2-4.1-3.1-7.6-6.8-10c-11.6-7.7-24.4-8-37.4-6.1c-1.6,0.2-3.5,1.5-4.5,2.9
			c-6.4,8.9-15.8,15.6-19.9,26.3c-1,2.5-3.1,4.6-4.5,7c-7.6,13.3-14.7,26.9-16.8,42.3c-1.5,10.5-2.7,21.1-3.4,31.7
			C274.3,385.2,274.1,399.9,273.5,414.4z M629.4,21.5c-2.6,3.5-4.7,5.9-6.3,8.6c-9.2,16-18.3,32.1-27.2,48.3
			c-2,3.6-4.3,7.5-4.8,11.4c-1.4,10.2-6.1,19.2-9.8,28.5c-1.2,3-1.9,6.2-2.7,9.3c-3.4,14.3-6.1,28.9-10.3,43
			c-8.3,28.4-15.7,56.9-21.7,85.9c-0.3,1.4,0,3,0,7.3c5.1-7,8.6-11.6,11.9-16.5c1.5-2.3,2.7-4.8,3.9-7.3
			c8.9-18.3,17.7-36.6,26.6-54.9c6.5-13.3,14-26.2,19.3-39.9c8.2-21.6,15-43.7,21.9-65.7c3.9-12.4,5.7-25.3,5.3-38.3
			C635.3,34.8,635,28.2,629.4,21.5z M1452.9,370.8c9-7.1,13.2-15.4,18.5-22.9c7.7-10.9,15.3-22,20-34.7c2.4-6.6,4.4-13.2,1.1-20.4
			c-8.2,0-15.1,3.2-21.3,8.3c-6.6,5.4-11.7,11.8-13.6,20.3c-1.2,5.4-2.6,10.8-3.4,16.2C1452.8,347.9,1450,358.3,1452.9,370.8z
			 M1892.6,259.1c0.8,0.5,1.6,1,2.3,1.5c1.5-1,3-1.8,4.3-2.9c5.9-5.2,11.2-11,17.6-15.5c10.3-7.5,15.7-17.8,18.9-29.5
			c1.2-4.4,2.2-8.9,2.4-13.4c0.2-4-2.2-6.9-7.2-8c-3,1.8-6.4,4-9.9,6.1c-8.8,5.2-14.1,12.6-16.7,22.6c-2.4,9.3-6.2,18.3-9.1,27.5
			C1894.1,251.1,1893.5,255.2,1892.6,259.1z M1073.9,351.8c11.3-5.4,19.8-13.5,26.6-23.4c4.8-6.9,7.2-14.9,7.3-23.4
			c0.1-6.4-1.2-12.6-6.3-17.2C1083.7,301,1072,327.9,1073.9,351.8z M2532.6,374.9c-8.3,1.3-12.5,6.5-17.4,10.4
			c-8.1,6.4-13.6,14.9-18.5,23.8c-2.4,4.3-1.2,8.2,3.3,10.4c4.8,2.4,10,4,14.7,5.9C2533.7,412.8,2534.3,394.9,2532.6,374.9z
			 M2042.8,365.3c1.1-1.3,2.4-2.6,3.4-4c10-14,16.5-29.7,21.8-45.9c0.8-2.6,0.9-5.5,0.8-8.2c-0.1-3.4-1.4-6.2-5.9-6.6
			c-4.5,5.5-8.4,11.5-10,18.9c-0.8,4-2.7,7.8-4.2,11.6C2044.6,341.8,2042.5,353,2042.8,365.3z M1696.7,340.1
			c-13.9,1.8-23.5,8.7-30.9,19c-2.6,3.7-1.6,8-0.6,12c1.1,4.2,4.1,6.9,8,7.8c6-1.5,8.9-6,11.1-10.4
			C1688.8,359.7,1696.3,352.2,1696.7,340.1z M626.8,331.7c13.2-9.5,20.5-23.5,29.1-36.4c1.6-2.4,2.2-5.6,3.2-8.4
			c-4.5-2.3-7,0-9.2,2.2C638.3,301.1,630,315,626.8,331.7z M793.4,318.9c0.7-0.3,1.4-0.6,2.1-0.9c-0.2-0.3-0.5-1-0.6-1
			c-0.7,0.2-1.4,0.5-2.1,0.8C793.1,318.1,793.2,318.5,793.4,318.9z"/>
		<path class="st2" d="M1005.9,83.5c1.1,3.1,2.1,5.7,2.9,8.3c2.9,9.6-4.9,15.4-11.9,17c-7.2,1.6-14.5-3.9-15.3-12.2
			c-0.3-3.5,0.4-7.3,1.6-10.7c1.8-4.9,5.9-7.1,11.1-6.1C998.3,80.6,1002.1,82.3,1005.9,83.5z"/>
	</g>
</g>
</svg>
